<svg xmlns="http://www.w3.org/2000/svg" id="Capa_2" data-name="Capa 2" viewBox="0 0 265.36 154.05"><defs><style>.cls-1{fill:#000;stroke:#fff;stroke-miterlimit:10;stroke-width:2.09px}.cls-2{fill:#fff;stroke-width:0}</style></defs><g id="Capa_1-2" data-name="Capa 1"><path d="M146.55 68.64c-4.51 9.11-8.82 17.81-13.11 26.51-8.9 18.08-17.77 36.17-26.73 54.22-.64 1.29-1.69 2.67-2.92 3.25-.88.42-2.92-.06-3.43-.81-.7-1.03-1-2.96-.51-4.08 2.02-4.63 4.4-9.11 6.65-13.64 21.59-43.43 43.19-86.86 64.78-130.28 1.68-3.37 2.27-3.51 5.38-1.18 2.44 1.82 4.97 3.54 7.21 5.58 10.41 9.52 23.65 12.39 36.66 15.91 10.14 2.74 20.57 4.85 29.46 10.94 4.75 3.25 9.33 6.76 14.05 10.2-10.73 21.91-21.31 43.49-31.91 65.14-3.64-2.9-7.05-5.76-10.6-8.41-8.78-6.57-18.87-10.02-29.48-12.27-6.04-1.28-12.02-2.84-18.03-4.28-9.96-2.39-18.13-7.83-25.37-14.87-.57-.56-1.18-1.07-2.11-1.91Zm97.16-18.75c-1.01 1.81-2 3.64-3.04 5.44-1.25 2.16-2.53 4.3-3.8 6.45-1.07-.43-2.18-.79-3.21-1.3-3.69-1.82-7.35-3.69-11.21-5.63-2.12 4.17-4.02 7.93-5.89 11.61 5.06 2.6 9.87 5.07 14.8 7.6-2.14 4.36-4.07 8.31-6.06 12.37 4.09 2.46 7.88 4.73 11.94 7.17 2.03-4.18 3.95-8.13 5.92-12.2-4.12-2.62-7.92-5.04-11.46-7.3 1.84-4.39 3.51-8.36 5.18-12.33 3.86 2.64 7.73 5.28 11.91 8.14 2.14-4.38 4.09-8.39 6.05-12.42-3.9-2.65-7.54-5.12-11.17-7.58 1.6-3.55 3.19-7.09 5.05-11.22-4.98-2.44-9.88-4.85-15.09-7.4-1.94 4-3.63 7.47-5.34 10.99 5.38 2.65 10.42 5.13 15.42 7.62Zm-32.74 29.2c-1.84 3.31-3.69 6.61-5.49 9.84 5.22 2.4 9.96 4.58 14.93 6.86 1.54-2.97 3.1-5.98 4.75-9.17-1.15-.69-2.07-1.3-3.04-1.8-3.72-1.93-7.46-3.83-11.19-5.74.17-.84.19-1.76.54-2.52 1.48-3.23 3.06-6.41 4.71-9.82-1.87-.55-3.3-.99-4.74-1.39-3.25-.9-6.51-1.78-9.76-2.66 1.67-3.72 3.28-7.46 5.08-11.11.22-.43 1.58-.61 2.3-.43 3.73.89 7.41 2.01 11.15 2.86.81.18 2.32-.14 2.63-.71 1.82-3.34 3.39-6.83 5.24-10.67-5.06-1.58-9.83-3.08-14.6-4.57 1.62-3.52 3.25-7.04 5-10.83-5.51-1.32-10.6-2.57-15.73-3.71-.59-.13-1.7.24-1.96.71-1.49 2.71-2.79 5.53-4.42 8.85 6 1.7 11.61 3.3 17.22 4.89-2.15 4.09-4.3 8.19-6.54 12.47-5.62-1.72-11.09-3.39-16.7-5.1-2.17 4.42-4.26 8.65-6.74 13.7 6.36 1.27 12.25 2.45 18.13 3.64-2.14 4.12-4.27 8.25-6.58 12.69 5.71 1.35 10.76 2.53 15.8 3.72Zm-34.34-41.17c4.58 2.55 8.85 4.92 13.42 7.46 2.19-4.44 4.13-8.39 6.08-12.35-4.44-2.52-8.69-4.94-13.21-7.51-2.02 3.98-4.01 7.9-6.28 12.39Zm.77 33.21c2.3-4.67 4.2-8.52 6.05-12.28-4.42-2.66-8.63-5.18-13.07-7.85-1.72 3.49-3.56 7.06-5.22 10.71-.25.56.1 1.88.59 2.2 3.68 2.41 7.47 4.66 11.65 7.22Zm-.9-33.19c-3.6-2.77-7.08-5.44-10.78-8.28-1.83 3.72-3.56 7.13-5.15 10.6-.25.54-.09 1.68.33 2.05 3.04 2.74 6.19 5.35 9.5 8.17 2.15-4.42 4.08-8.39 6.1-12.53Zm1.25 32.91c-1.51 3.13-2.97 6.16-4.59 9.49 5.54 1.53 10.59 2.97 15.67 4.28.56.14 1.66-.3 1.93-.78 1.38-2.54 2.58-5.19 3.93-8a8846 8846 0 0 1-16.94-4.99ZM153.78 54c-1.71 3.41-3.3 6.43-4.69 9.55-.26.57.04 1.84.53 2.23 3.04 2.46 6.21 4.77 9.6 7.33 1.72-3.5 3.3-6.72 4.85-9.89-3.48-3.12-6.7-6.01-10.29-9.22Zm29.06-28.84c1.42-2.93 2.77-5.5 3.89-8.18.25-.59-.04-1.83-.52-2.23-3.02-2.48-6.17-4.8-9.54-7.38-1.47 3.02-2.86 5.69-4.04 8.44-.25.59-.02 1.85.45 2.21 3.09 2.4 6.3 4.63 9.77 7.13ZM126.06 84.71c-2.64-5.31-5.27-10.61-8.09-16.29-1.42 1.25-2.73 2.28-3.91 3.45-7.75 7.65-17.17 11.97-27.69 14.27-6.92 1.52-13.79 3.26-20.69 4.89-11.53 2.73-21.25 8.76-30.04 16.47-.98.86-1.97 1.7-3.18 2.74-.56-.84-1.07-1.44-1.41-2.12-9.81-20.11-19.56-40.24-29.45-60.3-1.04-2.12-.57-3.13 1.09-4.52 10.41-8.74 22.03-14.93 35.36-18.03 8.27-1.92 16.41-4.44 24.57-6.83 8.59-2.52 15.1-8.51 22.09-13.66C91.12.05 91.53.09 95.08 7.23c11.27 22.66 22.46 45.36 33.87 67.95 2.18 4.32-1.69 6.31-2.11 9.56-.26 0-.52-.02-.78-.02Zm-86.79 2.48c1.7 2.77 3.4 5.54 5.02 8.19l14.55-6.66c-1.43-3.04-2.87-6.09-4.47-9.49l15.05-4.05c-2.27-4.34-4.41-8.42-6.55-12.5 5.89-1.19 11.78-2.38 18.18-3.67a9658 9658 0 0 0-6.76-13.71c-5.76 1.77-11.16 3.42-16.82 5.15-2.05-4.16-3.99-8.11-6.03-12.25 5.7-1.82 11.12-3.55 16.75-5.34-1.6-3.26-2.89-6-4.32-8.66-.3-.56-1.26-1.24-1.76-1.13-5.3 1.17-10.56 2.49-16.2 3.86 1.92 3.95 3.66 7.51 5.43 11.15-5.12 1.56-9.82 2.99-14.77 4.51 1.85 3.86 3.43 7.35 5.23 10.71.29.54 1.63.92 2.35.76 3.84-.89 7.63-2.03 11.47-2.94.71-.17 2.07.03 2.28.47 1.8 3.66 3.4 7.42 5.08 11.16l-14.52 3.9c2.07 4.35 3.98 8.38 5.96 12.54-1.17.48-2.04.74-2.82 1.16-4.12 2.27-8.22 4.58-12.33 6.87-1.88-4.3-3.76-8.59-5.81-13.28 4.81-2.47 9.62-4.94 14.61-7.5-1.91-3.76-3.81-7.51-5.79-11.39-2 .86-3.78 1.56-5.5 2.37-3.06 1.44-6.08 2.95-9.13 4.46-2.11-3.81-4.23-7.62-6.49-11.7-3.69 2.32-7.24 4.54-10.93 6.85 2.04 4.24 3.94 8.19 6.07 12.6 4-2.76 7.68-5.31 11.36-7.86 1.76 4.04 3.51 8.07 5.36 12.32-3.71 2.33-7.42 4.66-11.14 7 2.14 4.33 4.05 8.18 6.03 12.19 2.67-1.61 4.97-3.06 7.34-4.38 1.27-.7 2.67-1.15 4.01-1.73ZM36.3 42.17c-1.82-3.76-3.55-7.33-5.46-11.28-5.26 2.63-10.1 5.04-15.19 7.59 2.04 4.13 3.83 7.77 5.63 11.41 5.16-2.65 9.9-5.09 15.02-7.72Zm38.3 3.25c4.65-2.61 8.92-5.01 13.38-7.51-2.21-4.39-4.19-8.32-6.24-12.37-4.54 2.58-8.8 4.99-13.22 7.5 1.93 3.93 3.83 7.81 6.08 12.38Zm6.59 13.5c1.93 3.85 3.89 7.74 6.12 12.18 4.02-2.45 7.65-4.58 11.17-6.88.63-.41 1.31-1.79 1.07-2.33-1.65-3.74-3.54-7.37-5.29-10.91-4.39 2.67-8.5 5.17-13.07 7.94Zm6.94-20.97c2.02 4.12 4 8.15 6.14 12.52 3.39-2.87 6.47-5.44 9.48-8.09.4-.36.73-1.33.53-1.75-1.69-3.61-3.51-7.16-5.39-10.93-3.74 2.87-7.16 5.49-10.76 8.27ZM69.96 75.83c1.25 2.59 2.29 5 3.59 7.26.36.63 1.62 1.27 2.28 1.11 4.7-1.14 9.36-2.47 14.01-3.79.46-.13.82-.65 1.25-1-1.49-2.99-2.87-5.77-4.25-8.53-5.67 1.67-11.07 3.25-16.88 4.96Zm35.35-2.99c3.81-2.9 7.31-5.57 10.83-8.25-1.84-3.71-3.49-7.02-5.28-10.63l-10.31 9.32 4.76 9.55ZM87.78 7.08c-3.4 2.61-6.39 4.81-9.25 7.18-.56.47-1.04 1.78-.78 2.38 1.16 2.77 2.59 5.42 4.1 8.48 3.49-2.51 6.76-4.81 9.95-7.22.38-.29.62-1.32.41-1.77-1.33-2.91-2.8-5.76-4.43-9.04Z" class="cls-1"/><path d="M138.42 94.51c2.37 4.75 4.62 9.24 6.85 13.73l18.78 37.74c.27.54.54 1.09.8 1.64.96 2.03.74 3.82-1.35 4.91-2.11 1.1-3.84.2-4.84-1.7-2.21-4.2-4.25-8.5-6.35-12.76-5.14-10.43-9.94-21.05-15.57-31.21-2.71-4.89-1.14-8.25 1.68-12.35Z" class="cls-1"/><path d="M213.48 38.05c4.77 1.49 9.54 2.98 14.6 4.57-1.85 3.84-3.41 7.32-5.24 10.67-.31.57-1.82.89-2.63.71-3.74-.85-7.42-1.97-11.15-2.86-.72-.17-2.08 0-2.3.43-1.81 3.65-3.42 7.39-5.08 11.11l.07-.03c-5.89-1.18-11.78-2.36-18.15-3.63 2.48-5.04 4.57-9.28 6.74-13.7 5.61 1.71 11.07 3.38 16.7 5.1 2.25-4.28 4.39-8.37 6.54-12.47l-.11.09ZM236.88 61.76c-1.67 3.97-3.34 7.95-5.18 12.34 3.54 2.26 7.34 4.68 11.46 7.3-1.98 4.07-3.89 8.02-5.92 12.2-4.06-2.44-7.84-4.71-11.94-7.17 1.99-4.06 3.93-8.01 6.06-12.37-4.93-2.53-9.74-5-14.8-7.6 1.87-3.68 3.77-7.43 5.89-11.61 3.86 1.94 7.52 3.81 11.21 5.63 1.03.51 2.14.87 3.21 1.31zM176.63 37.92c2.28-4.49 4.27-8.41 6.28-12.39 4.52 2.57 8.78 4.99 13.21 7.51-1.95 3.96-3.89 7.91-6.08 12.35-4.57-2.54-8.84-4.92-13.42-7.46Z" class="cls-2"/><path d="M201.69 62.68c3.25.89 6.51 1.77 9.76 2.66 1.44.4 2.87.84 4.74 1.39-1.65 3.42-3.23 6.6-4.71 9.82-.35.76-.37 1.67-.54 2.52h.04c-5.05-1.18-10.1-2.37-15.81-3.72 2.3-4.45 4.44-8.57 6.58-12.7l-.06.02ZM243.74 49.88c-5.03-2.48-10.06-4.95-15.45-7.6 1.71-3.52 3.4-6.99 5.34-10.99 5.21 2.56 10.11 4.96 15.09 7.4-1.86 4.13-3.45 7.67-5.05 11.22zM177.4 71.13c-4.18-2.56-7.97-4.81-11.65-7.22-.49-.32-.84-1.64-.59-2.2 1.65-3.65 3.49-7.22 5.22-10.71 4.44 2.67 8.65 5.19 13.07 7.85-1.85 3.75-3.75 7.61-6.05 12.28M213.59 37.96c-5.61-1.59-11.23-3.19-17.22-4.89 1.63-3.32 2.93-6.13 4.42-8.85.26-.47 1.37-.84 1.96-.71 5.13 1.13 10.23 2.39 15.73 3.71-1.75 3.79-3.38 7.31-5 10.83z" class="cls-2"/><path d="M243.67 49.9c3.63 2.47 7.26 4.93 11.17 7.58-1.96 4.03-3.92 8.04-6.05 12.42-4.18-2.86-8.04-5.5-11.91-8.15 0 0-.01.03-.01.02 1.27-2.15 2.56-4.29 3.8-6.45 1.04-1.8 2.03-3.62 3.06-5.44.01 0-.06.02-.06.02M176.5 37.94c-2.02 4.14-3.95 8.11-6.1 12.53-3.32-2.82-6.46-5.43-9.5-8.17-.41-.37-.57-1.51-.33-2.05 1.59-3.47 3.32-6.88 5.15-10.6 3.7 2.84 7.18 5.52 10.78 8.28ZM177.75 70.85c5.88 1.73 11.28 3.32 16.94 4.99-1.36 2.81-2.55 5.46-3.93 8-.27.49-1.37.93-1.93.78-5.08-1.3-10.12-2.74-15.67-4.28 1.61-3.34 3.07-6.36 4.59-9.49M210.94 79.08c3.73 1.91 7.47 3.81 11.19 5.74.97.5 1.88 1.11 3.04 1.8-1.65 3.19-3.21 6.2-4.75 9.17-4.97-2.29-9.71-4.46-14.93-6.86 1.8-3.23 3.64-6.53 5.49-9.84h-.03ZM153.78 54c3.59 3.21 6.81 6.1 10.29 9.22-1.56 3.17-3.14 6.39-4.85 9.89-3.39-2.56-6.56-4.87-9.6-7.33-.49-.39-.79-1.66-.53-2.23 1.39-3.11 2.99-6.14 4.69-9.55M182.84 25.16c-3.46-2.5-6.68-4.73-9.77-7.13-.47-.36-.7-1.62-.45-2.21 1.18-2.76 2.57-5.43 4.04-8.44 3.37 2.58 6.52 4.9 9.54 7.38.49.4.77 1.64.52 2.23-1.12 2.67-2.47 5.25-3.89 8.18ZM62.96 62.74c-1.66-3.73-3.26-7.49-5.06-11.15-.22-.44-1.57-.64-2.28-.47-3.84.92-7.62 2.05-11.47 2.94-.71.16-2.06-.22-2.35-.76-1.8-3.37-3.38-6.85-5.23-10.71 4.96-1.51 9.65-2.94 14.77-4.51-1.77-3.63-3.5-7.19-5.43-11.15 5.64-1.37 10.9-2.69 16.2-3.86.49-.11 1.46.58 1.76 1.13 1.44 2.66 2.72 5.4 4.32 8.66-5.63 1.8-11.05 3.52-16.75 5.34 2.04 4.14 3.98 8.09 6.03 12.25 5.67-1.74 11.06-3.39 16.82-5.15 2.1 4.27 4.23 8.57 6.76 13.71-6.4 1.29-12.29 2.48-18.17 3.67l.08.05ZM27.66 61.86c3.04-1.48 6.06-2.99 9.12-4.43 1.73-.81 3.51-1.52 5.5-2.37 1.98 3.89 3.88 7.63 5.79 11.39-4.99 2.56-9.8 5.03-14.61 7.5 2.05 4.69 3.93 8.98 5.81 13.28v-.03c-1.35.57-2.75 1.02-4.01 1.72-2.37 1.31-4.67 2.77-7.34 4.38-1.98-4.01-3.89-7.86-6.03-12.19 3.72-2.34 7.43-4.67 11.14-7-1.85-4.25-3.6-8.28-5.36-12.32v.07Z" class="cls-2"/><path d="M39.27 87.23c4.11-2.29 8.21-4.6 12.33-6.87.78-.43 1.65-.69 2.82-1.16-1.98-4.16-3.89-8.19-5.96-12.54 5.06-1.36 9.79-2.63 14.51-3.91-.01 0-.08-.05-.09-.05 2.13 4.07 4.27 8.15 6.54 12.5-5.24 1.41-9.97 2.68-15.05 4.05 1.6 3.41 3.04 6.46 4.47 9.49-4.95 2.27-9.69 4.44-14.55 6.66-1.63-2.65-3.33-5.42-5.02-8.19v.04ZM36.3 42.17c-5.12 2.63-9.86 5.07-15.02 7.72-1.8-3.64-3.59-7.28-5.63-11.41 5.09-2.54 9.93-4.96 15.19-7.59 1.91 3.94 3.64 7.52 5.46 11.28M74.6 45.42c-2.24-4.57-4.15-8.46-6.08-12.38 4.42-2.51 8.68-4.92 13.22-7.5 2.04 4.05 4.02 7.98 6.24 12.37-4.46 2.51-8.73 4.9-13.38 7.51M81.19 58.92c4.56-2.77 8.68-5.28 13.07-7.94 1.75 3.53 3.63 7.17 5.29 10.91.24.54-.44 1.92-1.07 2.33-3.51 2.31-7.15 4.43-11.17 6.88-2.23-4.44-4.18-8.33-6.12-12.18M88.13 37.95c3.61-2.77 7.03-5.4 10.76-8.27 1.88 3.77 3.7 7.32 5.39 10.93.2.42-.13 1.4-.53 1.75-3 2.66-6.09 5.22-9.48 8.09-2.14-4.37-4.12-8.4-6.14-12.52ZM27.66 61.79c-3.68 2.55-7.36 5.09-11.36 7.86-2.12-4.41-4.03-8.37-6.07-12.6 3.69-2.31 7.24-4.54 10.93-6.85 2.26 4.08 4.37 7.89 6.49 11.68v-.09ZM69.96 75.83c5.81-1.71 11.2-3.29 16.88-4.96l4.25 8.53c-.43.35-.78.87-1.25 1-4.65 1.33-9.31 2.65-14.01 3.79-.66.16-1.92-.48-2.28-1.11-1.3-2.26-2.34-4.67-3.59-7.26ZM105.31 72.84l-4.76-9.55c3.34-3.02 6.68-6.03 10.31-9.32 1.79 3.61 3.43 6.92 5.28 10.63-3.52 2.68-7.02 5.35-10.83 8.25ZM87.78 7.08c1.63 3.28 3.1 6.13 4.43 9.04.21.45-.02 1.48-.41 1.77-3.19 2.41-6.46 4.72-9.95 7.22-1.51-3.06-2.94-5.71-4.1-8.48-.25-.6.22-1.91.78-2.38 2.86-2.37 5.85-4.57 9.25-7.18Z" class="cls-2"/></g></svg>