<?xml version="1.0" encoding="UTF-8"?>
<svg id="Capa_2" data-name="Capa 2" xmlns="http://www.w3.org/2000/svg" xmlns:xlink="http://www.w3.org/1999/xlink" viewBox="0 0 73 107">
  <defs>
    <style>
      .cls-1 {
        fill: #ad9461;
        filter: url(#drop-shadow-1);
        stroke: #fff;
        stroke-miterlimit: 10;
      }

      .cls-2 {
        font-family: ClashDisplayVariable-Semibold, 'Clash Display Variable';
        font-size: 25.21px;
        font-variation-settings: 'wght' 600;
        font-weight: 600;
      }
    </style>
    <filter id="drop-shadow-1" x="0" y="0" width="73" height="107" filterUnits="userSpaceOnUse">
      <feOffset dx="2.75" dy="2.75"/>
      <feGaussianBlur result="blur" stdDeviation="1.96"/>
      <feFlood flood-color="#000" flood-opacity=".75"/>
      <feComposite in2="blur" operator="in"/>
      <feComposite in="SourceGraphic"/>
    </filter>
  </defs>
  <g id="Capa_1-2" data-name="Capa 1">
    <g>
      <path class="cls-1" d="M45.05,41.45c-.56.76-1.02,1.43-1.53,2.07-1.23,1.55-2.48,3.09-3.72,4.63-.68.84-.68,1.09-.01,1.93,1.22,1.52.85,3.43-.85,4.37-.4.22-.62.51-.62.96.02,3.69.65,7.23,2.63,10.42.98,1.59,2.17,2.99,3.68,4.12,1.08.8,2.04,1.71,2.61,2.97.09.19.42.36.66.38.75.06,1.25.41,1.56,1.07.43.92.87,1.84,1.31,2.76.46.95.67,1.94.64,3.01-.04,1.63-.02,3.26-.02,4.89,0,.68.18,1.01.84,1.1,1.7.24,2.57,1.18,3.21,2.79.83,2.07,1.09,4.13.92,6.3-.03.38-.24.55-.58.64-2.74.69-5.5,1.18-8.35,1.03-.18,0-.37-.01-.56-.01-6.34,0-12.67-.02-19.01-.02-3.37,0-6.74-.02-10.11.03-2.12.03-4.09-.6-6.1-1.11-.41-.11-.45-.45-.48-.79-.13-1.46.03-2.89.44-4.28.21-.71.46-1.41.71-2.11.45-1.27,1.35-2.04,2.66-2.36,1.28-.3,1.28-.31,1.27-1.63,0-1.59-.04-3.18,0-4.77.03-1.34.44-2.58,1.04-3.77.31-.61.61-1.22.9-1.84.28-.61.78-.88,1.42-.9.58-.02.93-.27,1.11-.82.26-.81.81-1.42,1.49-1.89,5.03-3.45,6.95-8.45,7.16-14.31,0-.17-.01-.34,0-.5.07-.66-.21-1.11-.71-1.52-1.69-1.38-1.82-2.07-.81-4,.64-1.23.61-1.31-.26-2.42-1.62-2.07-3.21-4.16-4.82-6.25-.08-.1-.16-.2-.29-.36-.13.32-.23.58-.34.85-.54,1.32-1.73,2.1-3.03,2-1.75-.13-2.99-1-3.35-2.36-.4-1.49.82-3.71,2.3-4.12.18-.05.51,0,.58.12.1.17.11.48.01.65-.16.28-.44.49-.66.75-.42.49-.78,1.01-.67,1.7.14.9.9,1.49,1.88,1.46.85-.02,1.42-.59,1.51-1.55.12-1.23-.24-2.35-.82-3.4-1.43-2.59-3.28-4.88-5.1-7.2-2.31-2.94-4.65-5.86-6.83-8.9-1.85-2.58-3.17-5.44-3.64-8.62-.3-1.99-.25-3.94.86-5.7,1.18-1.86,2.78-3.02,5.11-2.78,1.09.12,2.01.65,2.74,1.44.43.46.85.55,1.43.33,2.38-.89,4.9-1.14,7.4-1.42,7.2-.79,14.42-.69,21.64-.21,1.64.11,3.28.35,4.91.59,1.01.15,1.12.44,1.01,1.44-.3,2.59-.53,5.19-.81,7.79-.65,6.13-2.11,12.06-4.4,17.79-.51,1.26-.83,2.6-1.24,3.91-.04.14-.09.31-.05.44.07.21.2.4.31.59.18-.1.41-.16.53-.31,1.67-2.23,2.86-4.71,3.82-7.31.73-1.97,1.58-3.87,2.88-5.55.93-1.2,1.17-2.67,1.35-4.13.24-1.99.41-3.98.62-5.97.05-.47-.13-.77-.56-.97-1.02-.48-1.38-1.11-1.29-2.21.11-1.37.23-2.73.35-4.1.07-.79.39-1.01,1.1-.68,1.15.53,2.23.39,3.18-.37,1.69-1.36,3.47-.97,4.95.13,2.12,1.57,2.86,3.75,2.72,6.29-.16,2.97-1.17,5.67-2.64,8.23-1.93,3.38-4.4,6.36-6.78,9.41-1.74,2.23-3.45,4.49-5.05,6.83-.71,1.04-1.15,2.27-1.6,3.46-.19.51-.18,1.14-.09,1.69.17,1.05,1.17,1.59,2.19,1.3.94-.27,1.46-1.24,1.08-2.21-.17-.43-.52-.79-.8-1.18-.13-.18-.36-.31-.42-.5-.06-.2-.02-.48.1-.66.07-.11.37-.15.53-.1,1.27.4,2.33,2.09,2.3,3.63-.02,1.24-.92,2.27-2.35,2.68-1.9.55-3.34-.19-4.01-2.04-.08-.22-.16-.44-.29-.79ZM12.36,7.88c-.03-.07-.05-.14-.08-.2-1.05-1.88-3.49-2.03-5.03-.33-1.04,1.15-1.21,2.53-1.14,3.99.14,2.85,1.22,5.39,2.6,7.83,1.78,3.15,4.03,5.98,6.28,8.81.72.91,1.45,1.81,2.17,2.72.06-.15.05-.25.02-.36-.35-1.38-.73-2.76-1.03-4.15-.99-4.51-1.5-9.09-1.98-13.68-.02-.2-.13-.4-.2-.6-.17.1-.35.17-.5.29-1.42,1.16-3.36,1.08-4.51-.19-1.48-1.65-.94-4.01,1.05-4.57.84-.23,1.6-.04,2.34.43ZM54.71,8.83c.14-.15.2-.22.26-.29.58-.73,1.32-1,2.22-.75.97.26,1.63.86,1.84,1.87.26,1.22-.35,2.6-1.4,3.28-1.03.66-2.47.58-3.5-.19-.17-.12-.35-.23-.63-.41-.65,6.35-1.48,12.54-3.28,18.58.19-.1.31-.23.42-.37.85-1.08,1.7-2.15,2.54-3.23,2.26-2.91,4.45-5.88,6.1-9.2,1.24-2.49,2.01-5.1,1.77-7.92-.12-1.47-.83-2.59-2.09-3.35-1.6-.96-3.94.06-4.25,1.97ZM41.53,68.86c-.2-.45-.34-.86-.56-1.21-1.96-3.12-3.22-6.49-3.76-10.13-.05-.33-.13-.66-.25-.96-.04-.11-.25-.16-.38-.24-.06.12-.18.25-.18.36.02.52.06,1.04.13,1.55.49,3.25,1.59,6.31,2.94,9.29.27.6.66,1.15,1.04,1.69.1.14.42.29.54.23.19-.1.31-.36.47-.57ZM38.02,51.01c.08.42.14.75.2,1.07.03.13.02.29.1.37.14.15.33.35.49.34.17,0,.48-.26.46-.36-.1-.56-.26-1.12-.46-1.66-.04-.1-.37-.15-.54-.11-.12.03-.2.26-.26.35ZM54.53,9.78c-.07.89.35,1.57,1.08,1.79.92.28,1.82-.41,1.74-1.36-.02-.21-.24-.42-.4-.6-.06-.06-.23-.02-.36-.02,0,.2,0,.41.02.61,0,.07.04.14.05.21.12.7-.31,1.08-.98.84-.69-.25-1.07-.75-1.15-1.48Z"/>
      <text class="cls-2" transform="translate(23.43 31.57)"><tspan x="0" y="0">3</tspan></text>
    </g>
  </g>
</svg>