<?xml version="1.0" encoding="UTF-8"?>
<svg id="Capa_2" data-name="Capa 2" xmlns="http://www.w3.org/2000/svg" viewBox="0 0 136.89 121.92">
  <defs>
    <style>
      .cls-1 {
        opacity: .3;
      }

      .cls-2 {
        fill: #fff;
      }

      .cls-3 {
        fill: #f9f9f9;
      }

      .cls-4 {
        stroke: #fff;
        stroke-miterlimit: 10;
        stroke-width: 2.91px;
      }
    </style>
  </defs>
  <g id="Capa_1-2" data-name="Capa 1">
    <g>
      <g class="cls-1">
        <path class="cls-2" d="M127.12,98.97c-18.27-5.93-36.39-12.5-54.23-19.67-14.56-5.84-20.55-16.63-17.77-28.94,2.71-11.96,12.93-20.1,26.65-20.49,11.94-.35,23.9-.07,35.96-.07-.17-1.92-.02-2.61-.28-3.04C100.3-.4,61.75-8.18,32.24,9.42.05,28.6-6.8,67.79,6.21,94.68c.75,1.53,2.97,3.14,4.65,3.32,19.41,2.13,38.87,3.73,58.26,5.99,20.9,2.44,41.76,5.43,63.28,8.27,4.27-6.81,3.06-10.58-5.28-13.29ZM28.75,81.41c-3.1,0-5.6-2.5-5.6-5.6s2.5-5.6,5.6-5.6,5.6,2.5,5.6,5.6-2.5,5.6-5.6,5.6Z"/>
        <path class="cls-4" d="M135.41,97.54c-22.18-8.24-42.94-15.34-63.17-23.73-11.1-4.6-14.75-12.87-12.51-22.08,2.63-10.8,10.52-16.94,22.34-17.06,11.79-.12,23.59-.28,35.36.22,2.69.11,6.56,2.25,7.67,4.53,8.62,17.63,10.59,36.57,10.3,58.12Z"/>
        <path class="cls-2" d="M11.18,101.71c39.45,4.9,78.9,9.81,118.34,14.71,0,1.45,0,2.91,0,4.36-3.21.39-6.51,1.43-9.63,1.06-34.13-4.09-68.23-8.36-102.32-12.73-2.49-.32-4.84-1.77-7.25-2.69.29-1.57.57-3.14.86-4.71Z"/>
      </g>
      <g>
        <path class="cls-3" d="M75.12,67.71c-.84,0-1.53-.7-1.53-1.53v-14.67c0-.84.7-1.53,1.53-1.53h7.56c3.32,0,5.58,2.4,5.58,5.38,0,1.37-.47,2.57-1.34,3.49.86.92,1.34,2.15,1.34,3.49,0,2.98-2.26,5.38-5.58,5.38h-7.56ZM80.06,60.69c-1,0-1.84-.84-1.84-1.84s.84-1.84,1.84-1.84h2.57c1.09,0,1.78-.72,1.78-1.67s-.7-1.67-1.78-1.67h-5.19v10.37h5.19c1.09,0,1.78-.75,1.78-1.67s-.7-1.67-1.78-1.67h-2.57Z"/>
        <path class="cls-3" d="M101.19,51.6c0-1.06.86-1.92,1.92-1.92s1.92.86,1.92,1.92v9.2c0,4.27-3.21,7.28-7.31,7.28s-7.3-3.01-7.3-7.28v-9.2c0-1.06.86-1.92,1.92-1.92s1.92.86,1.92,1.92v9.2c0,2.17,1.45,3.6,3.46,3.6s3.46-1.42,3.46-3.6v-9.2Z"/>
        <path class="cls-3" d="M112.63,53.66h-4.18c-1,0-1.84-.84-1.84-1.84s.84-1.84,1.84-1.84h12.21c1,0,1.84.84,1.84,1.84s-.84,1.84-1.84,1.84h-4.18v12.44c0,1.06-.86,1.92-1.92,1.92s-1.92-.86-1.92-1.92v-12.44Z"/>
      </g>
    </g>
  </g>
</svg>