<?xml version="1.0" encoding="UTF-8"?>
<svg id="Capa_2" data-name="Capa 2" xmlns="http://www.w3.org/2000/svg" viewBox="0 0 97.2 86.6">
  <defs>
    <style>
      .cls-1 {
        opacity: .3;
      }

      .cls-2 {
        fill: #fff;
      }

      .cls-3 {
        stroke: #fff;
        stroke-miterlimit: 10;
        stroke-width: 2px;
      }
    </style>
  </defs>
  <g id="Capa_1-2" data-name="Capa 1">
    <g class="cls-1">
      <path class="cls-2" d="M90.29,70.3c-12.98-4.22-25.85-8.88-38.52-13.97-10.34-4.15-14.59-11.81-12.62-20.56,1.92-8.5,9.19-14.28,18.93-14.55,8.48-.25,16.98-.05,25.54-.05-.12-1.37-.01-1.86-.2-2.16C71.25-.28,43.86-5.81,22.9,6.69.04,20.32-4.83,48.15,4.41,67.25c.53,1.09,2.11,2.23,3.3,2.36,13.79,1.51,27.61,2.65,41.38,4.25,14.85,1.74,29.67,3.86,44.95,5.87,3.04-4.84,2.17-7.52-3.75-9.44ZM20.42,57.83c-2.2,0-3.98-1.78-3.98-3.98s1.78-3.98,3.98-3.98,3.98,1.78,3.98,3.98-1.78,3.98-3.98,3.98Z"/>
      <path class="cls-3" d="M96.18,69.28c-15.75-5.86-30.5-10.9-44.87-16.86-7.88-3.27-10.47-9.14-8.88-15.68,1.87-7.67,7.47-12.03,15.87-12.12,8.37-.08,16.76-.2,25.12.16,1.91.08,4.66,1.6,5.45,3.22,6.12,12.53,7.52,25.97,7.32,41.28Z"/>
      <path class="cls-2" d="M7.94,72.25c28.02,3.48,56.04,6.97,84.06,10.45v3.1c-2.28.27-4.62,1.02-6.84.75-24.24-2.91-48.46-5.94-72.68-9.04-1.77-.23-3.44-1.26-5.15-1.91.2-1.11.41-2.23.61-3.34Z"/>
    </g>
  </g>
</svg>