<svg xmlns="http://www.w3.org/2000/svg" data-name="Capa 2" viewBox="0 0 181.17 109.41"><path d="M85.99 36.61c18.94 1.57 37.87 3.15 56.82 4.65 1.14.09 2.34-.52 3.51-.81-.32-1.03-.46-2.18-1.01-3.08-1.14-1.88-2.59-3.56-3.75-5.43-2.5-4.03-5.56-6.69-10.76-7.02-4.98-.31-8.14-4.29-8.41-9.1-.26-4.66 2.62-9.06 7.33-10.15 7.21-1.67 14.5-3.04 21.81-4.24 3.52-.58 6.54 1.3 8.25 4.18 2.87 4.84 5.31 9.96 7.74 15.05 1.27 2.65 2.22 5.06 6.06 3.96.89-.25 2.87 1.11 3.42 2.2 5.03 9.82 3.79 19.58-7.58 24.74-40.17 18.22-80.17 36.79-120.24 55.23-4.89 2.25-7.55 1.58-10.82-2.67-4.78-6.23-5.45-6.42-13.12-3.69C14.76 104.16 3.7 97.06 1.66 85.3.12 76.44 3.91 68.19 12 64.07c8.97-4.56 18.13-8.77 27.29-12.96 4.97-2.28 8.94.02 10.35 5.66 1.87 7.49-1.49 14.82-8.36 18.34-4.22 2.17-8.46 4.31-12.57 6.68-1.01.58-1.55 2-2.3 3.03 1.09.67 2.12 1.77 3.28 1.93 7.45 1.04 14.92 2.07 22.41 2.73 6.95.62 12.77-2.88 18.49-6.15.84-.48 1.5-2.81 1.07-3.72-2.53-5.21-1.95-10.61-1.57-16.03.35-5.08.96-10.14 1.17-15.22.38-9.4 3.61-12.43 12.98-11.81.58.04 1.16.06 1.74.09v-.04ZM52.11 91.75c-7.58-.99-15.15-1.97-22.73-2.98-2.27-.3-4.39-.87-4.83-3.63-.44-2.79 1.17-4.25 3.42-5.37 4.35-2.17 8.67-4.39 12.98-6.63 5.52-2.86 8.35-9.09 6.92-15.22-1.28-5.48-4-6.85-9.11-4.46-8.28 3.88-16.55 7.76-24.77 11.76-8.47 4.12-12.08 11.41-10.2 20.56 1.95 9.51 11.64 17.14 22.4 12.19 5.55-2.56 8.64-1.46 12.6 3.6 4.36 5.57 4.75 5.65 11.24 2.65 12.3-5.67 24.62-11.29 36.92-16.96 27.43-12.64 54.81-25.37 82.29-37.89 10.45-4.76 10-13.13 6.26-21.45-.33-.73-1.72-1.65-2.33-1.47-4.56 1.3-5.85-1.77-7.34-4.96-2.24-4.8-4.33-9.75-7.24-14.13-1.31-1.97-4.6-3.99-6.76-3.76-7.23.74-14.39 2.3-21.5 3.92-4.19.96-6.43 4.59-6.07 8.57.35 3.84 3.39 7.14 7.63 7.21 4.79.08 7.73 2.44 10.16 6.13 1.59 2.41 3.58 4.58 5.01 7.08.77 1.34 1.46 3.51.88 4.63-.57 1.1-2.8 1.9-4.3 1.88-4.86-.06-9.71-.5-14.56-.89-15.7-1.26-31.4-2.62-47.1-3.82-5.36-.41-8.2 2.32-8.61 7.69-.39 5.07-1 10.13-1.22 15.21-.27 6.16-1.78 12.42 1.61 18.36 1.12 1.97.36 4.26-1.77 5.39-6.23 3.31-12.43 6.83-19.9 6.79Z" data-name="Capa 1" style="fill:#000;stroke:#fff;stroke-miterlimit:10;stroke-width:2.68px"/></svg>