<?xml version="1.0" encoding="UTF-8"?>
<svg id="Capa_2" data-name="Capa 2" xmlns="http://www.w3.org/2000/svg" xmlns:xlink="http://www.w3.org/1999/xlink" viewBox="0 0 83 118">
  <defs>
    <style>
      .cls-1 {
        font-family: ClashDisplayVariable-Semibold, 'Clash Display Variable';
        font-size: 33.76px;
        font-variation-settings: 'wght' 600;
        font-weight: 600;
      }

      .cls-2 {
        fill: #efd567;
        filter: url(#drop-shadow-1);
        stroke: #fff;
        stroke-miterlimit: 10;
      }
    </style>
    <filter id="drop-shadow-1" x="0" y="0" width="83" height="118" filterUnits="userSpaceOnUse">
      <feOffset dx="4.88" dy="4.88"/>
      <feGaussianBlur result="blur" stdDeviation="3.49"/>
      <feFlood flood-color="#000" flood-opacity=".75"/>
      <feComposite in2="blur" operator="in"/>
      <feComposite in="SourceGraphic"/>
    </filter>
  </defs>
  <g id="Capa_1-2" data-name="Capa 1">
    <g>
      <path class="cls-2" d="M48.72,44.64c-.58.78-1.05,1.47-1.57,2.12-1.26,1.59-2.54,3.17-3.81,4.75-.69.86-.7,1.12-.01,1.98,1.25,1.56.87,3.52-.87,4.47-.41.23-.64.52-.64.99.02,3.78.67,7.4,2.7,10.67,1.01,1.62,2.23,3.07,3.77,4.22,1.11.82,2.09,1.76,2.68,3.05.09.2.43.37.67.39.76.06,1.28.42,1.6,1.09.45.94.89,1.89,1.34,2.83.47.98.68,1.99.65,3.08-.05,1.67-.02,3.34-.02,5.01,0,.7.18,1.04.86,1.13,1.74.24,2.64,1.21,3.29,2.85.85,2.12,1.12,4.23.94,6.45-.03.39-.25.57-.59.65-2.81.7-5.64,1.21-8.55,1.05-.19-.01-.38-.01-.57-.01-6.49,0-12.98-.02-19.47-.02-3.45,0-6.91-.02-10.36.03-2.17.04-4.19-.61-6.25-1.14-.42-.11-.46-.46-.49-.81-.14-1.49.03-2.96.45-4.39.21-.73.47-1.44.73-2.16.46-1.3,1.38-2.09,2.72-2.41,1.31-.31,1.31-.32,1.3-1.67,0-1.63-.04-3.26-.01-4.89.03-1.37.45-2.65,1.07-3.86.32-.62.63-1.25.92-1.88.29-.62.8-.9,1.45-.92.59-.02.96-.28,1.13-.84.27-.83.83-1.45,1.53-1.93,5.15-3.54,7.12-8.66,7.34-14.66,0-.17-.02-.34,0-.51.07-.67-.22-1.14-.73-1.56-1.73-1.41-1.86-2.12-.83-4.1.65-1.26.62-1.35-.26-2.48-1.66-2.12-3.29-4.27-4.93-6.4-.08-.1-.16-.2-.29-.37-.13.32-.24.6-.35.87-.56,1.35-1.77,2.15-3.1,2.05-1.8-.13-3.07-1.03-3.44-2.42-.41-1.53.85-3.8,2.36-4.22.18-.05.52,0,.59.12.1.17.11.49.01.67-.16.29-.45.51-.67.76-.43.5-.79,1.03-.69,1.74.14.93.92,1.52,1.92,1.5.87-.02,1.45-.61,1.55-1.58.12-1.26-.24-2.4-.84-3.49-1.47-2.65-3.36-5-5.22-7.38-2.37-3.01-4.76-6.01-7-9.12-1.9-2.64-3.25-5.57-3.73-8.83-.3-2.04-.25-4.04.89-5.84,1.2-1.9,2.85-3.1,5.24-2.84,1.12.12,2.06.66,2.81,1.48.44.47.87.56,1.47.34,2.44-.91,5.02-1.17,7.58-1.45,7.38-.81,14.77-.71,22.17-.21,1.68.11,3.36.36,5.03.6,1.03.15,1.15.45,1.03,1.48-.3,2.66-.55,5.32-.83,7.98-.67,6.28-2.16,12.36-4.51,18.22-.52,1.3-.85,2.66-1.27,4-.04.14-.09.32-.05.45.07.21.21.41.32.61.18-.1.42-.17.54-.32,1.71-2.28,2.93-4.82,3.92-7.48.75-2.02,1.62-3.96,2.95-5.68.95-1.23,1.2-2.73,1.38-4.23.24-2.03.42-4.08.63-6.11.05-.48-.13-.79-.57-1-1.04-.49-1.42-1.14-1.33-2.26.11-1.4.23-2.8.36-4.2.07-.81.4-1.03,1.12-.7,1.18.54,2.29.4,3.26-.38,1.73-1.39,3.55-1,5.07.13,2.17,1.61,2.93,3.84,2.78,6.44-.17,3.04-1.2,5.81-2.7,8.43-1.98,3.46-4.51,6.52-6.95,9.64-1.79,2.29-3.54,4.6-5.17,7-.72,1.06-1.18,2.33-1.64,3.54-.2.52-.19,1.17-.09,1.73.18,1.07,1.2,1.63,2.25,1.33.97-.28,1.49-1.27,1.11-2.27-.17-.44-.53-.81-.82-1.21-.13-.18-.37-.32-.43-.51-.06-.2-.02-.5.1-.67.07-.11.38-.15.55-.1,1.3.41,2.39,2.14,2.36,3.72-.02,1.27-.94,2.33-2.41,2.75-1.94.56-3.42-.19-4.11-2.09-.08-.23-.16-.45-.29-.81ZM15.23,10.25c-.03-.07-.05-.14-.08-.21-1.08-1.92-3.58-2.08-5.15-.34-1.06,1.18-1.24,2.59-1.16,4.09.14,2.92,1.25,5.52,2.66,8.02,1.83,3.23,4.13,6.13,6.43,9.02.74.93,1.48,1.86,2.23,2.79.06-.15.05-.26.02-.37-.35-1.42-.75-2.82-1.06-4.25-1.01-4.62-1.54-9.31-2.03-14.01-.02-.21-.13-.41-.2-.61-.17.1-.36.17-.52.3-1.46,1.19-3.44,1.11-4.62-.2-1.52-1.69-.96-4.11,1.08-4.68.86-.24,1.64-.04,2.4.44ZM58.62,11.22c.14-.16.21-.22.27-.29.59-.75,1.35-1.02,2.27-.77.99.27,1.67.88,1.89,1.92.26,1.25-.36,2.67-1.44,3.36-1.05.67-2.53.59-3.59-.2-.17-.13-.36-.23-.64-.42-.66,6.5-1.51,12.85-3.36,19.03.19-.1.32-.24.43-.38.87-1.1,1.74-2.2,2.61-3.31,2.32-2.99,4.56-6.02,6.25-9.42,1.27-2.55,2.05-5.22,1.81-8.11-.13-1.51-.85-2.65-2.14-3.43-1.64-.98-4.04.07-4.36,2.01ZM45.12,72.72c-.21-.46-.35-.88-.57-1.24-2-3.19-3.3-6.65-3.85-10.38-.05-.34-.13-.67-.26-.99-.05-.12-.25-.17-.39-.25-.06.12-.19.25-.18.37.02.53.06,1.06.14,1.59.5,3.33,1.63,6.47,3.01,9.51.28.61.68,1.18,1.07,1.74.1.15.43.3.55.24.2-.1.31-.37.48-.58ZM41.52,54.43c.08.43.14.76.21,1.1.03.13.02.29.1.38.14.15.34.36.5.35.17,0,.49-.27.47-.37-.1-.58-.26-1.15-.47-1.7-.04-.1-.38-.16-.55-.11-.13.03-.2.26-.27.36ZM58.44,12.18c-.07.91.36,1.61,1.1,1.84.94.29,1.87-.42,1.78-1.39-.02-.22-.24-.43-.41-.61-.06-.07-.24-.02-.36-.02,0,.21,0,.42.02.63,0,.07.04.15.05.22.12.72-.32,1.1-1,.86-.71-.25-1.09-.77-1.18-1.51Z"/>
      <text class="cls-1" transform="translate(28.05 37.79)"><tspan x="0" y="0">1</tspan></text>
    </g>
  </g>
</svg>