<?xml version="1.0" encoding="UTF-8"?>
<svg id="Capa_2" data-name="Capa 2" xmlns="http://www.w3.org/2000/svg" viewBox="0 0 136.89 121.92">
  <defs>
    <style>
      .cls-1 {
        fill: #fff;
      }

      .cls-2 {
        fill: #f9f9f9;
      }

      .cls-3 {
        stroke: #fff;
        stroke-miterlimit: 10;
        stroke-width: 2.91px;
      }
    </style>
  </defs>
  <g id="Capa_1-2" data-name="Capa 1">
    <g>
      <g>
        <path class="cls-1" d="M127.12,98.97c-18.27-5.93-36.39-12.5-54.23-19.67-14.56-5.84-20.55-16.63-17.77-28.94,2.71-11.96,12.93-20.1,26.65-20.49,11.94-.35,23.9-.07,35.96-.07-.17-1.92-.02-2.61-.28-3.04C100.3-.4,61.75-8.18,32.24,9.42.05,28.6-6.8,67.79,6.21,94.68c.75,1.53,2.97,3.14,4.65,3.32,19.41,2.13,38.87,3.73,58.26,5.99,20.9,2.44,41.76,5.43,63.28,8.27,4.27-6.81,3.06-10.58-5.28-13.29ZM28.75,81.41c-3.1,0-5.6-2.5-5.6-5.6s2.5-5.6,5.6-5.6,5.6,2.5,5.6,5.6-2.5,5.6-5.6,5.6Z"/>
        <path class="cls-3" d="M135.41,97.54c-22.18-8.24-42.94-15.34-63.17-23.73-11.1-4.6-14.75-12.87-12.51-22.08,2.63-10.8,10.52-16.94,22.34-17.06,11.79-.12,23.59-.28,35.36.22,2.69.11,6.56,2.25,7.67,4.53,8.62,17.63,10.59,36.57,10.3,58.12Z"/>
        <path class="cls-1" d="M11.18,101.71c39.45,4.9,78.9,9.81,118.34,14.71v4.36c-3.22.39-6.51,1.43-9.63,1.06-34.13-4.09-68.23-8.36-102.32-12.73-2.49-.32-4.84-1.77-7.25-2.69.29-1.57.57-3.14.86-4.71Z"/>
      </g>
      <g>
        <path class="cls-2" d="M81,60.26h-6.11v4.78c0,.94-.76,1.7-1.7,1.7s-1.7-.76-1.7-1.7v-12.81c0-.94.76-1.7,1.7-1.7s1.7.76,1.7,1.7v4.78h6.11v-4.78c0-.94.76-1.7,1.7-1.7s1.7.76,1.7,1.7v12.81c0,.94-.76,1.7-1.7,1.7s-1.7-.76-1.7-1.7v-4.78Z"/>
        <path class="cls-2" d="M96.23,61.57h-3.79c-.89,0-1.63-.74-1.63-1.63s.74-1.63,1.63-1.63h3.79v-1.41c0-1.92-1.28-3.18-3.05-3.18s-3.06,1.26-3.06,3.18v8.13c0,.94-.76,1.7-1.7,1.7s-1.7-.76-1.7-1.7v-8.13c0-3.7,2.83-6.43,6.46-6.43s6.46,2.73,6.46,6.43v8.13c0,.94-.76,1.7-1.7,1.7s-1.7-.76-1.7-1.7v-3.47Z"/>
        <path class="cls-2" d="M119.4,55.16c0-.84-.49-1.38-1.21-1.38s-1.21.54-1.21,1.38v6.95c0,2.86-1.97,4.68-4.61,4.68s-4.61-1.82-4.61-4.68v-6.95c0-.84-.49-1.38-1.21-1.38s-1.21.54-1.21,1.38v9.88c0,.94-.76,1.7-1.7,1.7s-1.7-.76-1.7-1.7v-9.88c0-2.86,1.97-4.68,4.61-4.68s4.61,1.82,4.61,4.68v6.95c0,.84.49,1.38,1.21,1.38s1.21-.54,1.21-1.38v-6.95c0-2.86,1.97-4.68,4.61-4.68s4.61,1.82,4.61,4.68v9.88c0,.94-.76,1.7-1.7,1.7s-1.7-.76-1.7-1.7v-9.88Z"/>
      </g>
    </g>
  </g>
</svg>