<svg xmlns="http://www.w3.org/2000/svg" data-name="Capa 2" viewBox="0 0 229.65 150.36"><path d="M25.74 102.73c-1.13 8.05-2.64 16.08-3.2 24.17-.2 2.9 1.4 6.31 3.09 8.88 2.99 4.53 3.35 8.7-.52 12.51-3.79 3.73-7.66 1.79-11.32-.75-2.53-1.76-5.3-3.2-7.69-5.12-7.38-5.92-7.53-10.1-3.36-18.47 2.57-5.17 3.56-11.24 4.63-17.03 4.65-25.15 18.18-45.01 36.36-62.22 15.11-14.31 8.58-12.32 28.33-7.72 12.84 2.99 25.54 6.66 38.47 9.16 13.96 2.7 28.09 4.54 42.19 6.45 6.09.82 9.24-2.17 9.07-8.33-.13-4.6-1.02-9.18-1.41-13.78-.59-6.93 2.44-11.92 8.55-15.04 9.81-5.01 19.52-10.24 29.54-14.76 2.79-1.26 6.55-.33 9.87-.41-.21 3.25-.36 6.5-.66 9.75-.08.82-.61 1.6-.4 1.07 5.33 0 10.98-.37 16.56.11 5.52.47 6.71 4.2 5.18 9.09-8.85 28.25-36.12 48.69-65.63 50.4-17.44 1.01-33.32-5.33-49.89-8.41-6.02-1.12-11.73-4.49-18.26-1.02-1.84.98-5.18-.31-7.63-1.13-7.43-2.5-14.76-5.32-22.16-7.9-1.19-.41-3.24-.83-3.79-.23-5.3 5.78-10.36 11.78-15.49 17.71 2.98 10.55-5.06 17.22-9.27 25.07-1.9 3.54-6.03 5.89-9.15 8.78l-2.01-.81Zm-5.98 42.35 2.52-1.41c-1.02-2.37-2.25-4.67-2.99-7.12-1.11-3.67-2.71-7.47-2.58-11.16.23-6.34 1.66-12.64 2.53-18.96.76-5.54 1.97-10.52 9.14-10.78 1.11-.04 2.45-1.66 3.18-2.85 2.88-4.69 5.7-9.44 8.22-14.33.82-1.59.55-3.71.98-5.54.81-3.41 1.07-7.24 2.86-10.07 2.56-4.04 6.56-7.14 9.44-11.02 4.25-5.74 8.97-6.4 15.99-4.96 10.82 2.22 20.45 10.86 32.56 6.51.52-.19 1.27.27 1.91.42 7.91 1.94 15.75 4.22 23.75 5.73 11.19 2.12 22.51 5.34 33.72 5.12 30-.58 55.05-20.29 62.41-47.8-3.42-.42-6.72-.84-10.48-1.3v13.23c-.01 6.17-2.86 10.18-7.37 9.73-5.58-.56-7.28-4.5-6.73-9.47.86-7.76 2.02-15.49 3.13-23.78-8.37 4.16-16.95 8.39-25.49 12.68-10.96 5.51-11.44 6.56-9.65 18.48.39 2.61.56 5.27.58 7.91.04 9.49-5.67 15.25-14.97 14.04-14.99-1.95-29.99-4.08-44.8-7.08-15.28-3.09-30.32-7.41-45.52-10.94-2.05-.48-5.2-.31-6.56.94-20.4 18.73-38.09 39.14-42.8 67.93-1.14 6.97-4.58 13.53-6.6 20.39-.45 1.53.02 4.16 1.1 5.17 3.93 3.67 8.31 6.87 12.52 10.25Z" data-name="Capa 1" style="fill:#fff;stroke-width:0"/></svg>