<svg xmlns="http://www.w3.org/2000/svg" data-name="Capa 2" viewBox="0 0 171.9 105.64"><path d="M55.45 93.44c-7.62 3.83-16.7 1.16-25.57-.47-7.16-1.31-12.32-6.35-14.73-13.06-2.16-6.01-3.45-12.45-4.2-18.81-.83-7.1-.52-14.34-.95-21.5-.08-1.33-1.28-2.59-1.95-3.88-.63-1.19-1.47-2.31-1.84-3.58C4.73 27.05 3.38 21.92 2 16.81c-.39-1.44-.91-2.88-1.05-4.36C.3 5.59 2.28 3.12 9.06 2.3c4.37-.53 8.75-.94 13.13-1.4 3.58-.37 6.32.97 8.25 4 .12.2.28.38.37.59 9.34 23.05 26.69 40.37 42.23 58.99 2.01 2.41 3.64 3.92 7.38 3.39 2.41-.34 5.67 1.7 7.73 3.58 2.45 2.23 4.72 3.51 8.11 3.81 21.46 1.93 42.9 4.11 64.34 6.26 6.59.66 10.09 3.77 10.43 9.04.35 5.4-4.93 11.8-10.98 13.07-7.68 1.61-15.39 1.34-23.17.53-25.01-2.6-50.04-4.96-75.04-7.59-1.9-.2-3.67-1.75-6.4-3.13Zm5.32.85c8.8.32 17.93.5 27.03 1.03 10.62.62 21.24 1.46 31.84 2.38 7.38.64 14.85 1.03 22.05 2.59 4.91 1.06 9.56 1.88 14.59 1.3 4.77-.55 8.29-2.63 10.84-6.56 2.7-4.16.75-9.23-4.08-10.28-2.25-.49-4.59-.54-6.9-.77-20.05-2.02-40.09-4.14-60.17-5.96-3.98-.36-6.93-1.57-9.64-4.54-1.47-1.61-4.58-3.45-6.15-2.9-4.64 1.63-6.61-1.05-8.87-3.88-1.01-1.27-2.1-2.47-3.12-3.73-13.2-16.18-28.67-30.7-36.89-50.51-.75-1.81-1.82-3.48-2.68-5.25-1.49-3.03-3.88-3.99-7.16-3.51-3.66.54-7.35.94-11.05 1.21-6.32.47-7.99 2.6-6.53 8.79.4 1.68 1.15 3.27 1.66 4.92 1.02 3.31 2.26 6.58 2.9 9.96.48 2.53.45 4.93 3.28 6.3.74.36 1 2.22 1.06 3.4.34 7.75.21 15.53.94 23.24.52 5.46 1.53 11.04 3.42 16.16 3 8.1 9.1 12.89 18.06 13.54 3.23.24 6.45.99 9.67.97 2.94-.02 5.99-.37 8.78-1.26 4.59-1.46 4.96-1.53 7.1 3.34Zm73.56 6.76c0-.25.01-.5.02-.75-13.42-1.28-26.84-2.56-40.25-3.85l-.06.66c13.43 1.31 26.86 2.63 40.29 3.94Z" data-name="Capa 1" style="fill:#fff;stroke:#fff;stroke-miterlimit:10;stroke-width:1.68px"/></svg>