<?xml version="1.0" encoding="UTF-8"?>
<svg id="Capa_2" data-name="Capa 2" xmlns="http://www.w3.org/2000/svg" xmlns:xlink="http://www.w3.org/1999/xlink" viewBox="0 0 101 149">
  <defs>
    <style>
      .cls-1 {
        font-family: ClashDisplayVariable-Semibold, 'Clash Display Variable';
        font-size: 35.08px;
        font-variation-settings: 'wght' 600;
        font-weight: 600;
      }

      .cls-2 {
        fill: #a8a6a3;
        filter: url(#drop-shadow-1);
        stroke: #fff;
        stroke-miterlimit: 10;
      }
    </style>
    <filter id="drop-shadow-1" x="0" y="0" width="101" height="149" filterUnits="userSpaceOnUse">
      <feOffset dx="3.82" dy="3.82"/>
      <feGaussianBlur result="blur" stdDeviation="2.73"/>
      <feFlood flood-color="#000" flood-opacity=".75"/>
      <feComposite in2="blur" operator="in"/>
      <feComposite in="SourceGraphic"/>
    </filter>
  </defs>
  <g id="Capa_1-2" data-name="Capa 1">
    <g>
      <path class="cls-2" d="M62.36,58.03c-.78,1.06-1.42,2-2.13,2.88-1.71,2.16-3.45,4.31-5.18,6.45-.94,1.17-.95,1.52-.02,2.69,1.69,2.12,1.19,4.78-1.19,6.08-.56.31-.87.71-.87,1.34.03,5.13.91,10.06,3.66,14.5,1.37,2.21,3.03,4.17,5.13,5.73,1.5,1.12,2.83,2.38,3.64,4.14.12.27.59.51.91.53,1.04.08,1.74.56,2.17,1.49.61,1.28,1.21,2.56,1.82,3.84.63,1.33.93,2.7.89,4.19-.06,2.27-.02,4.54-.03,6.81,0,.95.25,1.41,1.17,1.54,2.37.33,3.58,1.64,4.47,3.88,1.15,2.88,1.52,5.74,1.28,8.76-.04.54-.34.77-.81.89-3.81.95-7.66,1.65-11.62,1.43-.26-.01-.52-.02-.77-.02-8.82-.01-17.63-.03-26.45-.03-4.69,0-9.38-.03-14.07.05-2.95.05-5.69-.83-8.48-1.55-.57-.15-.62-.63-.67-1.1-.19-2.03.04-4.02.61-5.96.29-.99.64-1.96.99-2.93.63-1.77,1.87-2.85,3.7-3.28,1.78-.42,1.77-.44,1.77-2.27,0-2.21-.06-4.43-.01-6.64.04-1.86.61-3.59,1.45-5.25.43-.84.85-1.7,1.25-2.55.4-.85,1.09-1.22,1.98-1.25.81-.02,1.3-.38,1.54-1.15.36-1.13,1.13-1.97,2.07-2.62,7-4.8,9.67-11.77,9.97-19.92,0-.23-.02-.47,0-.7.1-.91-.29-1.55-.99-2.12-2.35-1.91-2.53-2.88-1.13-5.57.89-1.71.84-1.83-.36-3.36-2.25-2.88-4.47-5.79-6.7-8.69-.11-.14-.22-.28-.4-.5-.18.44-.32.81-.48,1.18-.76,1.83-2.41,2.92-4.22,2.79-2.44-.18-4.16-1.4-4.67-3.28-.55-2.08,1.15-5.16,3.2-5.73.25-.07.7,0,.8.17.14.23.15.67.02.91-.22.39-.61.69-.92,1.04-.58.68-1.08,1.4-.93,2.36.19,1.26,1.25,2.07,2.61,2.03,1.18-.03,1.97-.82,2.1-2.15.16-1.71-.33-3.26-1.14-4.74-1.99-3.61-4.56-6.8-7.09-10.02-3.21-4.09-6.47-8.16-9.51-12.38-2.58-3.58-4.41-7.57-5.07-12-.41-2.77-.34-5.48,1.2-7.93,1.64-2.58,3.87-4.21,7.12-3.86,1.52.16,2.79.9,3.82,2.01.6.64,1.18.76,1.99.46,3.32-1.24,6.81-1.59,10.3-1.98,10.03-1.11,20.07-.96,30.11-.29,2.28.15,4.56.49,6.83.82,1.4.2,1.56.61,1.4,2.01-.41,3.61-.74,7.23-1.12,10.84-.9,8.53-2.93,16.78-6.13,24.76-.71,1.76-1.16,3.62-1.72,5.44-.06.19-.13.43-.07.61.09.29.28.55.43.83.25-.14.57-.22.73-.43,2.32-3.1,3.98-6.55,5.32-10.17,1.02-2.74,2.2-5.38,4.01-7.72,1.29-1.66,1.63-3.71,1.87-5.74.33-2.76.57-5.54.86-8.3.07-.65-.18-1.07-.77-1.35-1.42-.67-1.92-1.54-1.8-3.08.15-1.9.32-3.8.49-5.7.1-1.1.54-1.4,1.53-.95,1.6.74,3.11.55,4.43-.52,2.35-1.89,4.83-1.35,6.89.17,2.95,2.19,3.97,5.22,3.78,8.75-.23,4.13-1.63,7.9-3.67,11.45-2.69,4.7-6.12,8.85-9.44,13.1-2.43,3.11-4.81,6.25-7.03,9.51-.98,1.44-1.6,3.16-2.23,4.81-.27.7-.25,1.59-.13,2.35.24,1.45,1.63,2.22,3.05,1.81,1.32-.38,2.03-1.73,1.5-3.08-.23-.6-.72-1.1-1.11-1.64-.18-.25-.51-.43-.58-.7-.08-.28-.02-.67.13-.91.1-.15.52-.2.74-.13,1.77.56,3.24,2.91,3.21,5.05-.03,1.73-1.28,3.16-3.27,3.73-2.64.76-4.64-.26-5.58-2.84-.11-.31-.22-.61-.4-1.09ZM16.88,11.32c-.04-.09-.07-.19-.12-.28-1.47-2.61-4.86-2.83-7-.46-1.44,1.6-1.68,3.52-1.58,5.56.2,3.97,1.7,7.5,3.61,10.9,2.48,4.39,5.61,8.33,8.74,12.26,1.01,1.26,2.02,2.52,3.02,3.78.08-.21.07-.35.03-.5-.48-1.92-1.01-3.84-1.44-5.77-1.38-6.28-2.09-12.65-2.75-19.03-.03-.28-.18-.55-.27-.83-.23.13-.49.24-.7.4-1.98,1.62-4.68,1.51-6.27-.27-2.06-2.3-1.31-5.59,1.47-6.36,1.17-.32,2.23-.06,3.26.59ZM75.81,12.64c.19-.21.28-.3.36-.4.8-1.02,1.84-1.39,3.09-1.05,1.35.37,2.27,1.2,2.57,2.6.36,1.69-.49,3.62-1.95,4.56-1.43.92-3.44.8-4.87-.27-.23-.17-.49-.32-.87-.56-.9,8.83-2.06,17.45-4.56,25.85.26-.14.44-.32.59-.51,1.18-1.5,2.37-2.99,3.54-4.5,3.15-4.05,6.19-8.18,8.49-12.8,1.73-3.47,2.79-7.09,2.46-11.02-.17-2.05-1.15-3.6-2.91-4.66-2.23-1.34-5.49.09-5.92,2.74ZM57.47,96.18c-.29-.63-.47-1.2-.78-1.69-2.72-4.34-4.48-9.03-5.23-14.1-.07-.46-.18-.91-.35-1.34-.06-.16-.34-.23-.53-.34-.09.17-.26.34-.25.51.03.72.08,1.44.18,2.15.68,4.52,2.21,8.78,4.09,12.92.38.83.92,1.6,1.45,2.36.14.2.58.4.75.32.27-.13.42-.5.65-.79ZM52.59,71.33c.11.58.19,1.04.28,1.49.04.18.03.4.14.51.19.2.46.48.68.47.23-.01.66-.37.64-.51-.14-.78-.36-1.56-.64-2.31-.05-.13-.52-.21-.75-.15-.17.05-.27.36-.36.49ZM75.56,13.95c-.1,1.24.49,2.18,1.5,2.49,1.27.39,2.54-.57,2.42-1.89-.03-.3-.33-.59-.56-.83-.08-.09-.33-.03-.49-.03,0,.28.01.57.03.85,0,.1.06.2.07.3.17.98-.43,1.5-1.36,1.17-.97-.34-1.49-1.05-1.6-2.06Z"/>
      <text class="cls-1" transform="translate(32.76 44.28)"><tspan x="0" y="0">2</tspan></text>
    </g>
  </g>
</svg>