<svg xmlns="http://www.w3.org/2000/svg" id="Capa_2" data-name="Capa 2" viewBox="0 0 67.13 179.86"><defs><style>.cls-1{stroke:#f9f9f9;stroke-miterlimit:10;stroke-width:3.4px}.cls-1,.cls-2{fill:none}.cls-3{fill:#000}.cls-2,.cls-3{stroke-width:0}</style></defs><g id="Capa_1-2" data-name="Capa 1"><path d="M17.6 43.87c0 .37.03.33.06.04-.02-.01-.04-.03-.06-.04Z" class="cls-1"/><path d="M4.15 53.41c-.92-1.46-.96-4.16-.96-8.99s.01-9.34 0-14.02c0-2.13.61-3.56 1.84-4.28.64-.39 1.43-.57 2.39-.58.51 0 1.02-.01 1.53-.01 4.39-.11 6.45-.16 7.47 1.19.91 1.21.99 3.53 1.12 7.92.01.22.03.43.06.68.03.31.08.67.15 1.16.01.19.05.41.07.65-.01 3.39-.51 2.89-.29 5.31 0 2.61-.06 4.68.01 6.76.03.85-.01 1.6-.14 2.26v.03c-.45 2.23-1.88 3.35-4.55 3.46-5.18.2-7.59.25-8.7-1.53ZM55.27 25.02c9.73-.42 9.84-.39 9.84 10.67 0 4.51-.02 9.04.01 13.55.02 3.41-1.38 4.99-4.39 5.19-8.99.58-8.98.64-10.25-12.44.09-2.98.09-2.48.35-5.41 0-2.2.07-4.16-.01-6.11-.15-3.59 1.13-5.32 4.45-5.45Z" class="cls-1"/><path d="M60.69 133.45c-2.77.01-5.56-.11-8.31.06-1.83.11-3.63.61-5.42.95-.09.02-.18.03-.27.06-.12-1.54.25-2.52.9-3.15 1.53-1.5 4.64-1.17 6.71-2.19h.01s.03-.06.06-.08c.07-.1.14-.22.19-.33 1.41-2.65.41-7.37.53-11.12.01-.29.01-.59.01-.88V92.85c-.16.4-.31.79-.46 1.18V75.82c-4.83-2.27-8.63-4.04-12.42-5.82l.03-.77c3.67 0 7.43-.53 10.95.29.59.14 1 1.11 1.43 2.44v-6.41c0-.34.1-.74-.03-1-.23-.39-.61-.67-.94-1-.27.34-.74.66-.81 1.03-.16 1.03-.14 2.08-.19 3.28-4.93-3.06-6.11-4.38-6.34-8.94-.18-3.3-1.7-5.5-4.09-7.39-.61-.49-1.2-1.02-1.83-1.55 3.11-2.55 7.51-3.02 9.84-6.49.15-2.2.25-4.4.32-6.61-3.33-.42-6.21-.75-9.08-1.19-.53-.08-1.01-.61-1.52-.93.51-.4 1-.81 1.52-1.18.19-.14.44-.19.79-.35v-4.59c-.98-.16-1.77-.29-2.87-.48v-9.14c.84.74 2.48.92 5.93 1.89.83.24 1.69.34 2.71.53 0-.91-.06-1.78-.17-2.62.56.49 1.08 1 1.49 1.59 2.28 3.3 5.51 3.67 9.56 3.8V7.98c-5.28-1.35-10.63-2.81-16.01-4.03-1.24-.27-2.49-.61-3.75-.91-2.11-1.37-4.51-1.6-7.12-1.12-.94.18-1.87.5-2.76.95-6.8 1.18-13.49 2.96-20.07 4.4V23.4c.54.15.81.31 1.01.26 2.19-.49 4.85-.39 6.43-1.66.96-.78 1.91-1.6 2.81-2.45-.05.49-.07.99-.08 1.49 8.03-.31 8.72-.98 9.59-9.25l.03-.44c.03-.31.07-.61.11-.92.03.01.07.02.11.05-.25 5.89-.5 11.77-.76 17.66-1.1.15-1.91.25-2.62.35v4.15l2.38 1.89c-.83.36-1.62.92-2.49 1.04-2.46.36-4.96.58-7.63.86-.01 2.19-.32 6.43-.45 7.47 3.44 2.04 6.61 3.91 9.92 5.89-3.07 2.64-6.36 4.75-6.09 9.23.27 4.55-3.21 6.35-6.49 8.75-.1-1.75-.17-3.12-.25-4.51-2.54-.16-2.04 1.52-2.04 2.74v4.14c-.84 1.03-.76 2.78-.01 5.58h.01V95.2c-.1-.25-.22-.5-.32-.75-.27 11.09-.36 22.14-.12 33.18.02 1.12 1.91 2.88 3.13 3.15 1.25.27 2.53.28 3.83.24h.01c.69.65.85 1.71 1.2 3.84-.08-.03-.14-.08-.2-.11-2.49-1.33-2.6-1.33-6.7-1.32H6.48c-4.06.01-4.77.75-4.77 4.89 0 6.57-.01 13.14-.01 19.71 1.36 1.27 3.08 2.2 4.86 2.77.45.14 5.79.74 8.37.91.68.06 1.3-.4 1.46-1.07.65-2.79 1.64-9.64 2.64-9.79v10.89c.37 0 .74-.01 1.1-.01-2.01 4.85-2.25 10.42-.66 15.42.29-.01.58-.02.87-.02.74.62 1.7 1.01 2.76 1.01h21.69c2.36 0 4.25-1.89 4.25-4.25v-3.54h-.36v-.02c-.52-2.81-1.05-5.61-1.58-8.41.18 0 .37.01.56.02V151.1c.17-.01.33.03.49.12 1.64.94 2.38 7.04 2.71 9.72.08.67.62 1.18 1.3 1.22h.01c.98.06 8.69-.58 9.22-.79 1.7-.71 3.21-2.12 3.96-3.76.02-6.51.06-13.02.07-19.53.02-3.94-.73-4.64-4.74-4.64ZM40.25 38.68c1.97.19 3.82.36 5.67.54.01.18.03.36.05.54-1.83.45-3.66.91-5.72 1.42v-2.51Zm-18.44.83c.01-.15.05-.31.06-.45 1.45-.16 2.89-.33 4.34-.46 1.75-.16 1.94.77 1.45 2.4-1.98-.51-3.92-1-5.85-1.49ZM20.8 138.3c.1.83.24 1.66.56 2.44-.09.24-.18.5-.25.75-.54-1.29-.57-2.32-.31-3.19Z" class="cls-1"/><path d="M54.3 129.18c-1.16 1.61-3.91 1.84-6.71 2.19 1.53-1.5 4.64-1.17 6.71-2.19ZM22.44 143.27c.46 4.37.62 8.77.48 13.16M19.17 132.8c.51.55.85 1.24 1.07 1.97M19.04 151c-.34.95-.65 1.92-.71 2.93M47.39 133.47c-.06.36-.22.68-.42.98M48.35 153.27c-.06-.68-.12-1.36-.19-2.04M47.12 161.92l-.77-4.1M20.75 160.39c-.22.44-.42.89-.61 1.35" class="cls-1"/><path d="M18.05 43.87c0 .37.03.33.06.04-.02-.01-.04-.03-.06-.04" style="stroke-width:0;fill:#b92828"/><path d="M41.85 11.73c1.29 1.55 2.39 3.27 3.76 4.74 1.3 1.41 3.14 2.39 4.2 3.94 2.28 3.31 5.52 3.67 9.56 3.8V7.98c-5.29-1.35-10.63-2.81-16.02-4.02-3.49-.78-7.2-2.07-10.59-1.57-7.85 1.14-15.56 3.24-23.12 4.9v16.12c.55.15.81.31 1.02.27 2.18-.49 4.86-.39 6.43-1.66 3.67-2.93 6.8-6.53 10.15-9.86.05-.05.01-.19.06-.24.52-.59 1.04-1.18 1.57-1.77l.82.33c-.25 5.89-.5 11.78-.76 17.66-1.1.15-1.91.25-2.62.35v4.16c1.01.8 1.69 1.35 2.38 1.89-.83.36-1.63.91-2.5 1.04-2.47.36-4.96.58-7.63.86-.02 2.18-.32 6.43-.45 7.47 3.43 2.04 6.6 3.92 9.92 5.89-3.07 2.64-6.36 4.75-6.09 9.24.28 4.55-3.21 6.35-6.49 8.75-.1-1.74-.17-3.12-.25-4.51-2.54-.16-2.04 1.52-2.04 2.74-.01 9.74 0 19.47-.01 29.21 0 10.35-.01 20.69-.06 31.04-.01 2.28.6 3.19 2.89 3.61 2.03.38 3.09.61 3.71 1.18.69.64.85 1.69 1.2 3.83-.07-.04-.14-.07-.2-.11.19.61.3 1.25.38 1.88.07.55.12 1.1.18 1.65.3-1.03 1.01-1.86 1.77-2.66.81-.85 1.67-1.67 2.16-2.68.34.19.69.38 1.03.57-1.06 1.88-2.13 3.76-3.19 5.64-.46.83-.93 1.65-1.4 2.48a1 1 0 0 1-.07-.17c-.62 2.09-.48 4.38-1.02 6.52-.26 1.02-.67 2.01-1.03 2.99v10.75c.37 0 .73 0 1.1-.01-2.01 4.86-2.25 10.42-.66 15.43 8.22-.26 16.44-.51 24.66-.77 1.4-.05 2.94-.15 3.91-1.16 1.19-1.24.96-3.22.64-4.91-.53-2.81-1.05-5.61-1.58-8.41.19 0 .37.01.56.02V151.1c.17-.01.33.04.48.13-.32-3.11-.84-6.19-1.54-9.24 0 .03-.02.06-.02.09-.71-.93-1.37-1.83-1.96-2.71-1.3-1.96-2.25-3.89-2.57-6.16.72.94 1.69 1.74 2.57 2.63.32.32.63.65.9 1.01.02-.13.04-.25.08-.38.23-.77.89-1.36 1.34-2.02l-.28.06c-.12-1.54.25-2.51.9-3.15 1.53-1.5 4.64-1.17 6.71-2.19.08-.03.14-.07.21-.11.01-.11.03-.2.04-.3.04-.25.07-.48.07-.72 0-11.34.01-22.69.01-34.03V65.53c0-.34.11-.74-.04-.99-.22-.38-.61-.67-.93-1-.28.34-.75.66-.81 1.03-.16 1.03-.14 2.08-.19 3.27-4.93-3.07-6.11-4.38-6.35-8.94-.18-3.3-1.69-5.49-4.08-7.39-.62-.49-1.2-1.02-1.83-1.55 3.11-2.56 7.5-3.02 9.84-6.49.15-2.2.25-4.41.32-6.61-3.33-.42-6.22-.75-9.08-1.19-.54-.08-1.01-.62-1.52-.94.5-.39 1-.8 1.51-1.17.19-.14.44-.2.8-.35v-4.6c-.97-.16-1.76-.29-2.87-.47V10.07c.87.71 1.53 1.1 1.99 1.66Zm-14.2 34.62c-2.2-1.51-4.23-2.9-6.26-4.3.07-.12.13-.25.19-.37 1.49.41 2.95.95 4.47 1.22 2.01.36 2.38 1.42 1.6 3.45m-5.39-6.84c.02-.15.05-.31.07-.46 1.45-.16 2.89-.33 4.34-.46 1.74-.16 1.94.77 1.45 2.39-1.99-.5-3.92-.99-5.86-1.48Zm4.52 97.18c.6 1.93 1.03 3.33 1.58 5.11-1.59.26-3.05.5-4.52.75-.13-.19-.27-.38-.4-.56 1.02-1.61 2.04-3.23 3.34-5.29Zm14.41-90.3c-.78-2.95.09-3.54 6.48-4.24-2.55 1.67-4.5 2.94-6.48 4.24m-.49-7.7c1.97.19 3.82.36 5.67.53.02.18.04.37.05.55-1.83.45-3.67.91-5.72 1.41v-2.5Zm.71 98.25c1.18 1.96 2.12 3.5 3.44 5.69-2.15-.27-3.56-.45-5.31-.68.67-1.8 1.16-3.11 1.88-5.01Z" style="stroke-width:0;fill:#fcd844"/><path d="M54.81 129.09c-1.51 2.28-6.11 1.89-9.72 2.77v11.77c.09.03.21 5.43.49 8.09-.55 2.72-1.09 5.43-1.6 7.97-2.09-1.8-3.77-3.24-6.27-5.38 1.68-20.99 9.75-40.9 17.83-61.47v24.8c-.12 3.92.97 8.89-.73 11.45" class="cls-3"/><path d="M65.89 138.09c-.02 6.51-.05 13.02-.07 19.53-.76 1.64-2.26 3.05-3.96 3.76-.53.22-8.24.85-9.22.79h-.01c-.68-.05-1.23-.55-1.31-1.23-.32-2.67-1.06-8.77-2.71-9.72-.32-3.11-.84-6.19-1.54-9.24.52-2.32-.09-3.87-1.08-5.14.02-.13.04-.25.08-.38.23-.77.89-1.36 1.34-2.02 1.78-.34 3.58-.84 5.41-.95 2.76-.17 5.55-.05 8.32-.05 4.01 0 4.76.7 4.74 4.64ZM21.55 141.49c-.62 2.09-.48 4.38-1.02 6.52-.26 1.02-.67 2.01-1.03 2.99v-.14c-1 .15-2 6.99-2.65 9.79-.16.67-.77 1.12-1.45 1.07-2.58-.17-7.92-.77-8.37-.91-1.78-.56-3.51-1.49-4.87-2.76 0-6.57.01-13.14.01-19.72 0-4.13.72-4.88 4.77-4.88H14c4.1-.01 4.2-.01 6.7 1.31.19.61.3 1.25.38 1.88.07.55.12 1.1.18 1.65-.26.87-.24 1.9.3 3.19ZM17.99 49.2c.03.85-.02 1.6-.14 2.25v.04c-.45 2.23-1.88 3.34-4.55 3.45-5.18.21-7.58.26-8.7-1.53-.92-1.46-.96-4.16-.96-9s.02-9.34 0-14.01c0-2.14.61-3.57 1.84-4.29.64-.38 1.43-.56 2.39-.57.51 0 1.02-.01 1.53-.02 4.39-.11 6.46-.16 7.48 1.19.91 1.21.98 3.53 1.12 7.92 0 .22.03.43.06.69.04.3.08.67.14 1.15.02.2.05.41.07.65-.01 3.4-.51 2.89-.29 5.31 0 2.6-.06 4.68.02 6.76ZM50.94 41.99c.08-2.98.08-2.48.35-5.41 0-2.2.06-4.16-.01-6.11-.14-3.59 1.14-5.32 4.44-5.46 9.73-.42 9.85-.38 9.85 10.68 0 4.52-.02 9.03.01 13.55.02 3.41-1.39 4.99-4.39 5.19-8.98.58-8.98.64-10.24-12.44ZM34.07 70.01c7.98.16 7.37-1.45 7.39 8.33 0 1.6.08 3.22-.1 4.79-.52 4.39-3.48 7.16-7.41 7.1-3.93-.07-6.71-2.96-7.07-7.46-.11-1.44-.08-2.91-.06-4.36.07-9.67-1.02-8.23 7.26-8.4Z" class="cls-3"/><path d="M30.6 155.43c-2.07.84-5 .07-5.02 3.83-.74-.36-1.99-.56-2.12-1.1-.32-1.37.04-2.93-.21-4.34-.13-.72-.46-10.12-.23-10.16v-12.73c-2.43 0-4.87.36-7.17-.15-1.23-.27-3.12-2.02-3.14-3.15-.24-11.05-.15-22.1.12-33.18 8.29 19.4 15.71 39.05 17.76 60.96ZM19.84 21.05c.13-8.99 5.84-17.86 12.65-19.12 4.05-.75 7.61.23 10.34 4.49 2.88 4.51 5.69 8.87 5.67 15.03-1.01-.2-1.88-.3-2.71-.53-7.56-2.15-6.46-.43-7.21-9.41-.28-3.41-1.2-6.33-4.47-6.44-3.38-.11-4.32 3-4.65 6.28-.01.14-.03.29-.04.44-.86 8.28-1.56 8.95-9.59 9.26ZM49.52 170.36v3.54c0 2.35-1.9 4.25-4.25 4.25h-21.7c-2.35 0-4.25-1.9-4.25-4.25v-3.54h30.21ZM25.55 70.02c-4.14 1.91-8.27 3.81-12.39 5.72-1.4-5.27-.44-6.82 4.47-6.84 2.6-.01 5.2 0 7.8 0l.12 1.13ZM56.53 76.49c-5.53-2.6-9.69-4.55-13.85-6.5.01-.26.02-.52.04-.77 3.67 0 7.43-.52 10.95.3 1.17.27 1.72 4 2.87 6.98Z" class="cls-3"/><path d="M22.89 143.27c.46 4.37.62 8.77.48 13.16M19.62 132.8c.51.55.85 1.24 1.07 1.97M21.25 138.3c.1.84.24 1.66.56 2.44-.1.25-.19.5-.26.75M19.5 151c-.34.95-.65 1.92-.71 2.93M47.84 133.47c-.06.36-.22.68-.42.98M46 136.86c-.09.72.15 1.46.41 2.15.3.81.36 1.66.56 2.5.04.16.08.33.11.49M48.81 153.27c-.06-.68-.12-1.36-.19-2.04" class="cls-2"/></g></svg>