<svg xmlns="http://www.w3.org/2000/svg" data-name="Capa 2" viewBox="0 0 195.07 124.56"><path d="M.3 53.74c0-4.01.03-8.03 0-12.04C.22 35.04.11 28.38 0 21.72c-.04-2.7.28-5.34 1.21-7.88.86-2.34 2.58-3.97 4.61-5.32 2.22-1.47 4.71-2.25 7.29-2.66 5.65-.89 11.31-1.74 16.98-2.46 5.13-.66 10.28-.48 15.43-.24 5.24.24 10.48.46 15.72.56 2.83.06 5.5-.75 7.94-2.21C71.51.13 74.03-.3 76.65.21c1.14.22 2.22.79 3.3 1.27 2.49 1.13 4.92 2.39 7.44 3.46 2.45 1.04 4.8.72 7.03-.84 1.91-1.32 3.98-2.37 6.19-3.14 4.47-1.57 10.21.58 12.61 4.66.91 1.54 1.3 3.14 1.06 4.84-.41 2.84 1.05 4.52 3.26 5.89 4.93 3.06 9.85 6.14 14.75 9.25a2647 2647 0 0 1 15.83 10.13c2.62 1.68 5.21 3.4 7.82 5.09 3.92 2.53 7.86 5.03 11.76 7.58 7.35 4.82 14.65 9.69 21.51 15.2 2.29 1.84 4.2 4 5.22 6.79.75 2.05.7 4.23.51 6.38-.37 4.16-2.69 7.01-6.32 8.81-1.62.8-3.36 1.37-5.07 1.96a33 33 0 0 0-8.64 4.52c-4.47 3.25-8.93 6.49-13.37 9.78-2.08 1.54-4.09 3.16-6.14 4.74-.4.31-.53.65-.23 1.13.6.97 1.22 1.93 1.73 2.94 1.37 2.71 1.04 5.1-1.17 7.16-3.37 3.14-7.27 5.43-11.8 6.44-2.4.54-4.84.42-7.22-.31-1.81-.56-3.22-1.76-4.59-2.98-3.86-3.44-7.68-6.93-11.51-10.41-5.7-5.17-11.4-10.33-17.08-15.52-3.04-2.78-6.09-5.55-9.06-8.41-1.94-1.87-3.2-4.16-3.55-6.88-.22-1.7.05-3.37.38-5.03.73-3.74 1.49-7.47 2.22-11.21.76-3.89-.11-7.44-2.29-10.7-2.62-3.91-5.26-7.82-7.85-11.74-1.05-1.59-2.03-3.22-3.02-4.84-1.82-2.99-.32-6.43 2.84-7.7 2.42-.97 4.98-1.33 7.54-1.71.54-.08 1.08-.15 1.62-.27.86-.19 1.02-.66.51-1.36-.88-1.22-2.15-1.86-3.52-2.31-3.87-1.25-7.84-2.02-11.92-2.2-1.41-.06-2.59.31-3.6 1.25-1.84 1.72-3.7 3.42-5.51 5.17-7.51 7.24-15.02 14.48-22.51 21.75-6.46 6.27-12.9 12.56-19.35 18.84-1.55 1.5-2.69 3.23-3.09 5.38-.04.24-.11.47-.13.71-.11 2.06-.01 2.78 2.13 3.19 2.17.42 4.34.85 6.5 1.34 1.54.35 3.09.78 4.33 1.81 2.36 1.97 3.34 4.56 3.11 7.59-.18 2.34-1.07 4.38-2.96 5.87-1.83 1.45-3.97 1.71-6.22 1.57-2.23-.15-4.11-1.17-5.94-2.3-4.12-2.54-8.25-5.07-12.29-7.73-4.99-3.29-8.59-7.75-10.69-13.37C.28 69.2 0 66.6.03 63.94c.03-3.4 0-6.8 0-10.2h.26Zm5.48-10.71h-.1c-.08 7.37-.18 14.74-.23 22.11 0 1 .09 2.03.35 2.99 1.37 5.1 4.37 9.16 8.64 12.1 4.29 2.95 8.82 5.54 13.27 8.26.98.6 1.96 1.21 3.17 1.29 1.6.11 2.61-.56 3.04-2.09.33-1.17-.38-3.31-1.48-3.62-1.72-.49-3.46-.99-5.22-1.29-1.91-.33-3.81-.63-5.58-1.43-2.16-.98-3.53-2.68-3.7-5.05-.34-4.71.95-8.89 4.41-12.26 2.68-2.62 5.35-5.24 8.04-7.85 5.77-5.6 11.55-11.19 17.33-16.78 4.46-4.31 8.91-8.63 13.37-12.94 2.93-2.83 5.87-5.66 8.84-8.45 2.16-2.03 4.71-3.03 7.74-2.72 4.07.41 8.08 1.04 11.98 2.33 2.8.93 5.4 2.25 7.83 3.95 3.02 2.12 2.31 6.65.02 8.17-1.38.92-2.87 1.5-4.45 1.88-2.09.5-4.2.89-6.29 1.36-1.42.32-1.63.82-.83 2.04 1.42 2.18 2.9 4.33 4.32 6.52 2.29 3.53 4.62 7.03 6.79 10.63 1.62 2.68 2.4 5.66 2.13 8.81-.18 2.11-.52 4.22-.9 6.31-.61 3.41-1.33 6.79-1.96 10.2-.32 1.74.1 3.34 1.38 4.59 2.08 2.04 4.17 4.07 6.32 6.03 5.45 4.98 10.94 9.92 16.41 14.89 5.04 4.58 10.07 9.18 15.13 13.75.9.82 1.74 1.77 2.99 2.09 1.55.39 3.12.43 4.68 0 2.33-.64 4.42-1.81 6.46-3.05 2.1-1.28 2.44-2.64 1.01-4.75-.77-1.13-1.33-2.41-1.91-3.66-.17-.36-.22-.93-.05-1.26.43-.82.88-1.71 1.55-2.31 1.64-1.45 3.38-2.79 5.13-4.1 5.07-3.79 10.19-7.52 15.25-11.33 3.54-2.66 7.38-4.69 11.57-6.11 1.9-.64 3.85-1.2 5.43-2.56.98-.84 1.77-1.78 1.89-3.11.08-.94.1-1.88.1-2.82-.01-1.5-.56-2.84-1.63-3.84-1.78-1.65-3.57-3.32-5.54-4.73-5.39-3.87-10.83-7.67-16.33-11.38-4.74-3.2-9.58-6.24-14.38-9.34-4.69-3.03-9.38-6.06-14.08-9.08-4.49-2.89-9.01-5.75-13.49-8.66-3.97-2.57-7.93-5.15-11.85-7.8-2.82-1.91-4.03-4.57-3.46-8 .19-1.13.21-2.34-.7-3.22-1.45-1.41-3.18-2.19-5.26-1.8-1.84.35-3.37 1.43-4.98 2.31-1.51.83-3.01 1.76-4.63 2.29-2.86.93-5.71.24-8.43-.75-1.82-.67-3.51-1.69-5.26-2.54-1.24-.6-2.47-1.22-3.74-1.74-.46-.19-1.03-.19-1.54-.15-1 .08-1.87.5-2.75.99-3.48 1.92-7.23 2.93-11.22 2.8-5.81-.19-11.61-.53-17.42-.67-3.68-.09-7.38-.16-11.04.16-4.69.4-9.35 1.16-14.01 1.82-2.49.35-4.98.77-7.36 1.67-2.99 1.14-4.84 3.17-5 6.49-.07 1.47-.15 2.94-.13 4.4.09 6.67.22 13.33.33 20Z" data-name="Capa 1" style="fill:#fff;stroke-width:0"/></svg>