<svg xmlns="http://www.w3.org/2000/svg" data-name="Capa 2" viewBox="0 0 184.34 117.61"><path d="M.84 104.93c2.23-5.7 4.33-11.46 6.75-17.08 2.15-4.99 5.48-9.26 9.21-13.19 4.54-4.78 9.22-9.44 13.73-14.25 1.85-1.97 3.59-4.04 4.71-6.58 1.88-4.25 5.44-6.58 9.76-7.77 3.09-.84 5.83-2.28 8.35-4.17 4.64-3.49 9.14-7.17 13.86-10.54 2.84-2.03 5.83-3.97 9.01-5.35 9.38-4.08 18.87-7.89 28.35-11.74 9.98-4.05 19.99-8.02 29.99-12.03 1.19-.48 2.39-.93 3.59-1.39h5.52c1.09 1.08 2.1 2.24 3.29 3.19.54.43 1.49.74 2.13.58 2.11-.51 4.21-1.12 6.22-1.93 3.8-1.53 7.14-1.14 9.87 2.06 5 5.84 9.97 11.69 14.9 17.59 1.04 1.24 1.9 2.65 2.71 4.05 1.32 2.27.79 5.09-1.26 7.37-1.46 1.62-3.98 1.98-6.38.9-2.71-1.23-4.69-3.31-6.53-5.55-1.11-1.36-2.12-2.8-3.21-4.17-1.28-1.61-2.09-1.87-4.03-1.08-3.52 1.44-6.93 3.18-10.51 4.41-7.27 2.48-14.63 4.69-21.94 7.05-2.1.68-4.19 1.42-6.24 2.24-1.76.7-2.8 2.17-2.78 3.98.02 3.16.2 6.33.61 9.46.33 2.52 2.13 4.19 4.4 5.09 3.68 1.46 7.42 2.81 11.2 3.99 5.86 1.84 11.77 3.49 17.66 5.24 4.02 1.19 6.56 3.74 7.14 7.98.32 2.35-.64 4.42-1.67 6.44-1.09 2.12-.5 4.69 1.58 5.83 3.33 1.83 6.76 3.47 10.12 5.24 2.07 1.09 4.18 2.13 6.12 3.41 2.67 1.76 3.44 4.24 2.3 7.22-1.73 4.52-4.17 8.65-7.34 12.31-1.73 2-3.92 2.96-6.71 3.02-9.27.2-16.81-3.8-23.68-9.41-5.82-4.75-10.34-10.65-14.43-16.9-2.74-4.19-5.31-8.56-9.33-11.7-1.79-1.4-3.77-2.72-5.88-3.52-4.52-1.73-9.16-3.13-13.77-4.61-2.34-.75-4.61-.42-6.82.63-4.91 2.32-9.92 4.45-14.74 6.93-6.31 3.25-13.03 4.89-19.97 5.92-2.31.34-4.6.84-6.91 1.19-2.46.38-3.75-.51-4.43-2.93-.11-.4-.19-.8-.33-1.4-1.97 1.46-3.81 2.88-5.69 4.22-8.7 6.22-17.4 12.44-26.13 18.62-2.18 1.55-4.37 3.08-6.67 4.44-2.79 1.65-4.18 1.19-5.66-1.58v-1.76Zm47.68-22.69c2.68-.48 5.3-.97 7.92-1.4 5.99-.99 11.9-2.12 17.39-4.94 4.98-2.56 10.13-4.77 15.18-7.18 3.41-1.63 6.9-2.27 10.57-1.1 4.06 1.29 8.12 2.58 12.13 4.01 4.44 1.59 8.34 4.09 11.36 7.75 1.91 2.31 3.73 4.72 5.4 7.21 3.65 5.4 7.29 10.8 11.95 15.42 6.06 6.01 13.12 10.14 21.61 11.63 2.65.47 5.5.79 7.28-1.7 2.58-3.62 4.92-7.44 7.14-11.3 1-1.75.45-2.96-1.33-3.97-2-1.13-4.07-2.12-6.1-3.2-3.61-1.91-7.24-3.81-10.81-5.79-1.33-.74-2.16-1.98-2.42-3.5-.41-2.35-.49-4.65.96-6.75 2.4-3.47.2-7.9-3.42-8.9-3.91-1.07-7.79-2.24-11.65-3.47-5.53-1.76-11.08-3.46-16.53-5.46-3.62-1.33-6.87-3.52-7.64-7.63-.62-3.29-.89-6.71-.82-10.06.08-3.97 2.5-6.57 6.16-7.87 3.7-1.31 7.48-2.38 11.2-3.6 5.27-1.72 10.57-3.38 15.79-5.26 3.61-1.3 7.06-3.03 10.65-4.41 3.23-1.24 5.43-.46 7.58 2.29 1.77 2.27 3.54 4.55 5.42 6.73.77.9 1.77 1.67 2.79 2.27 1.24.73 2.31.35 3.14-.84 1.24-1.78 1.3-2.92-.1-4.66-3.53-4.39-7.1-8.76-10.74-13.07-2.1-2.49-4.33-4.86-6.56-7.23-1.17-1.24-2.66-1.48-4.27-.93-1.42.48-2.84 1.01-4.28 1.43s-2.9.83-4.38 1.05c-2.19.34-3.87-.59-5.19-2.34-1.39-1.85-2.6-2.21-4.69-1.48-1.5.53-2.99 1.07-4.47 1.66-7.22 2.87-14.44 5.73-21.64 8.64-10.46 4.22-20.91 8.45-31.33 12.75-3.97 1.64-7.96 3.33-11.42 5.94-4.4 3.32-8.72 6.76-13.11 10.08-3.61 2.73-7.33 5.28-11.87 6.27-.73.16-1.43.47-2.11.78-2.2 1-3.83 2.57-4.92 4.77-.81 1.64-1.7 3.31-2.9 4.66-3.93 4.38-8.09 8.56-12.04 12.92-3.25 3.58-6.59 7.12-9.46 11-4.55 6.15-6.86 13.42-9.4 20.54-.19.54-.29 1.1-.52 1.97.8-.44 1.35-.7 1.85-1.03 1.7-1.13 3.42-2.25 5.08-3.45C20.93 94.34 30.9 87.16 40.88 80c1.08-.78 2.16-1.58 3.32-2.23 1.77-.99 3.07-.47 3.72 1.46.3.9.39 1.86.61 3.03Z" data-name="Capa 1" style="fill:#fff;stroke:#fff;stroke-miterlimit:10;stroke-width:1.68px"/></svg>