<svg xmlns="http://www.w3.org/2000/svg" data-name="Capa 2" viewBox="0 0 216.5 131.47"><path d="M0 109.76c.58-1.06 1.11-2.15 1.76-3.17 2.37-3.71 4.45-7.68 7.27-11 2.45-2.88 6.12-3.53 9.95-2.77 6.35 1.25 12.7 2.53 19.1 3.54 11.56 1.81 18.94-6 16.07-17.31-1.66-6.52-4.23-12.81-6.35-19.22-.95-2.86-2.13-5.71-2.59-8.66-.61-3.92 1.16-6.98 4.75-8.86 3.47-1.82 6.66-.99 8.92 1.84 2.76 3.46 5.39 7.15 7.36 11.1 4.41 8.81 10.04 16.43 18.53 21.72 1.34.84 2.48 2.02 3.86 2.77 2.13 1.15 5.53 3.5 6.37 2.82 2.62-2.1 5.72-5.24 6.02-8.24.61-6.05-.54-12.27-.91-18.43-.49-8.15-1.62-16.34-1.17-24.44.39-7.06 2.77-13.83 10.17-17.38 1.33-.64 2.3-2.54 2.91-4.07 2.89-7.36 6.55-10.23 14.58-9.99 13.82.42 27.62 1.36 41.43 1.79 10.66.33 21.34.12 32.01.29 9.15.15 16.42 7.54 16.47 16.5.03 7.02-4.35 11.46-11.35 11.06-5.03-.29-10.06-.86-15.02-1.7-4.26-.72-8.37-.3-11.39 2.6-5.92 5.69-11.43 3.73-17.13.02-.95-.62-1.88-1.27-2.3-1.56-3.52 2.85-6.59 5.92-10.19 8.11-6.28 3.82-12.98 2.47-17.9-3-3.62-4.02-4.58-4.04-8.89-.51-5.16 4.24-7.32 9.69-5.81 16.13 1.86 7.96 4.11 15.84 6.43 23.68 2.89 9.8-2.91 21.93-12.66 25.18-2.18.73-5.25.43-7.35-.56-3.44-1.63-6.42-4.23-9.65-6.45-12.41 7.27-24.82 14.82-37.51 21.88-9.55 5.31-19.4 10.1-29.24 14.88-2.81 1.37-5.96 2.19-9.05 2.77-7.83 1.49-13.33-1.97-16.02-9.68-.36-1.05-.98-2.02-1.48-3.04v-8.65ZM149.34 6.48v.29c-8.91 0-17.83.04-26.75-.03-2.38-.02-3.35 1.06-4.37 3.16-1.74 3.56-3.4 8.46-6.43 9.82-6.03 2.71-7.24 7.45-7.13 12.43.21 9.87 1.39 19.72 2.26 29.57.71 8.03.25 15.8-4.45 22.77-1.37 2.03-3.13 4.14-.47 6.42 2.43 2.09 4.92 3.21 8.17 1.16 5.05-3.2 8.25-9.12 6.94-15.52-1.64-8-3.92-15.88-6.03-23.78-2.71-10.16 1.18-20.49 10-26.23 4.49-2.92 7.6-2.73 11.66.87 1.72 1.53 3.2 3.33 4.98 4.78 3.97 3.27 6.67 3.04 10.09-.69 1.85-2.01 3.57-4.14 5.46-6.11 2.76-2.87 5.92-3.21 9.36-1.2 1.61.94 3.26 1.83 4.88 2.76 2.26 1.29 4.19 1.53 6.58-.29 5.21-3.97 11.33-4.48 17.7-3.74 4.71.55 9.45.82 14.19 1.04 2.95.13 4.41-1.45 4.56-4.48.35-6.95-3.8-11.12-11.5-11.37l-49.7-1.62ZM88.4 87.17c-2.72-2.29-4.77-4.29-7.09-5.91-9.34-6.54-15.97-15.15-20.56-25.52-1.31-2.96-3.5-5.57-5.55-8.13-.61-.76-2.63-1.43-3.08-1.05-.93.79-1.75 2.34-1.68 3.52.1 1.65 1.09 3.23 1.63 4.86 2.67 8.03 5.98 15.92 7.82 24.14 2.91 12.98-5.29 22.53-18.64 22.13-6.28-.19-12.53-1.55-18.79-2.35-4.14-.53-8.3-1.35-11.68 2.32-4.38 4.75-6.09 16.22-2.97 20.68 2.91 4.15 9.23 4.67 17.16 1.4.66-.27 1.32-.58 1.95-.92 11.69-6.21 23.51-12.2 35.02-18.73 8.86-5.02 17.32-10.74 26.43-16.43Z" data-name="Capa 1" style="fill:#fff;stroke-width:0"/></svg>