<?xml version="1.0" encoding="UTF-8"?>
<svg id="Capa_2" data-name="Capa 2" xmlns="http://www.w3.org/2000/svg" viewBox="0 0 136.89 121.92">
  <defs>
    <style>
      .cls-1 {
        opacity: .3;
      }

      .cls-2 {
        fill: #fff;
      }

      .cls-3 {
        fill: #f9f9f9;
      }

      .cls-4 {
        stroke: #fff;
        stroke-miterlimit: 10;
        stroke-width: 2.91px;
      }
    </style>
  </defs>
  <g id="Capa_1-2" data-name="Capa 1">
    <g>
      <g class="cls-1">
        <path class="cls-2" d="M127.12,98.97c-18.27-5.93-36.39-12.5-54.23-19.67-14.56-5.84-20.55-16.63-17.77-28.94,2.71-11.96,12.93-20.1,26.65-20.49,11.94-.35,23.9-.07,35.96-.07-.17-1.92-.02-2.61-.28-3.04C100.3-.4,61.75-8.18,32.24,9.42.05,28.6-6.8,67.79,6.21,94.68c.75,1.53,2.97,3.14,4.65,3.32,19.41,2.13,38.87,3.73,58.26,5.99,20.9,2.44,41.76,5.43,63.28,8.27,4.27-6.81,3.06-10.58-5.28-13.29ZM28.75,81.41c-3.1,0-5.6-2.5-5.6-5.6s2.5-5.6,5.6-5.6,5.6,2.5,5.6,5.6-2.5,5.6-5.6,5.6Z"/>
        <path class="cls-4" d="M135.41,97.54c-22.18-8.24-42.94-15.34-63.17-23.73-11.1-4.6-14.75-12.87-12.51-22.08,2.63-10.8,10.52-16.94,22.34-17.06,11.79-.12,23.59-.28,35.36.22,2.69.11,6.56,2.25,7.67,4.53,8.62,17.63,10.59,36.57,10.3,58.12Z"/>
        <path class="cls-2" d="M11.18,101.71c39.45,4.9,78.9,9.81,118.34,14.71,0,1.45,0,2.91,0,4.36-3.21.39-6.51,1.43-9.63,1.06-34.13-4.09-68.23-8.36-102.32-12.73-2.49-.32-4.84-1.77-7.25-2.69.29-1.57.57-3.14.86-4.71Z"/>
      </g>
      <g>
        <path class="cls-3" d="M78.97,52.35c-.39-.98.08-2.12,1.06-2.51.98-.42,2.12.05,2.51,1.03l4.8,11.88,4.8-11.88c.39-.98,1.53-1.45,2.51-1.03.98.39,1.45,1.53,1.06,2.51l-5.72,13.94c-.42,1.03-1.39,1.78-2.65,1.78s-2.23-.75-2.65-1.78l-5.72-13.94Z"/>
        <path class="cls-3" d="M97.73,51.6c0-1.06.86-1.92,1.92-1.92s1.92.86,1.92,1.92v14.5c0,1.06-.87,1.92-1.92,1.92s-1.92-.86-1.92-1.92v-14.5Z"/>
        <path class="cls-3" d="M105.79,67.71c-.84,0-1.53-.7-1.53-1.53v-14.58c0-1.06.86-1.92,1.92-1.92s1.92.86,1.92,1.92v12.44h6.36c1,0,1.84.84,1.84,1.84s-.84,1.84-1.84,1.84h-8.67Z"/>
      </g>
    </g>
  </g>
</svg>